<svg width="53" height="53" viewBox="0 0 53 53" fill="none" xmlns="http://www.w3.org/2000/svg">
<g filter="url(#filter0_d_1546_6662)">
<rect x="5" y="3" width="43" height="43" rx="21.5" fill="#B9135B"/>
</g>
<g clip-path="url(#clip0_1546_6662)">
<path fill-rule="evenodd" clip-rule="evenodd" d="M21.2735 15C20.7961 15 20.3383 15.1896 20.0007 15.5272C19.6631 15.8648 19.4735 16.3226 19.4735 16.8V19.8H18.2735V21H19.4735V27H18.2735V28.2H19.4735V31.2C19.4735 31.6774 19.6631 32.1352 20.0007 32.4728C20.3383 32.8104 20.7961 33 21.2735 33H32.0735C32.5509 33 33.0087 32.8104 33.3463 32.4728C33.6838 32.1352 33.8735 31.6774 33.8735 31.2V16.8C33.8735 16.3226 33.6838 15.8648 33.3463 15.5272C33.0087 15.1896 32.5509 15 32.0735 15H21.2735ZM24.2735 21C24.2735 20.3635 24.5263 19.753 24.9764 19.3029C25.4265 18.8529 26.037 18.6 26.6735 18.6C27.31 18.6 27.9205 18.8529 28.3705 19.3029C28.8206 19.753 29.0735 20.3635 29.0735 21C29.0735 21.6365 28.8206 22.247 28.3705 22.6971C27.9205 23.1471 27.31 23.4 26.6735 23.4C26.037 23.4 25.4265 23.1471 24.9764 22.6971C24.5263 22.247 24.2735 21.6365 24.2735 21ZM23.0735 28.2C23.0735 27.2452 23.4528 26.3295 24.1279 25.6544C24.803 24.9793 25.7187 24.6 26.6735 24.6C27.6283 24.6 28.5439 24.9793 29.2191 25.6544C29.8942 26.3295 30.2735 27.2452 30.2735 28.2V29.4H23.0735V28.2Z" fill="white"/>
</g>
<defs>
<filter id="filter0_d_1546_6662" x="0" y="0" width="53" height="53" filterUnits="userSpaceOnUse" color-interpolation-filters="sRGB">
<feFlood flood-opacity="0" result="BackgroundImageFix"/>
<feColorMatrix in="SourceAlpha" type="matrix" values="0 0 0 0 0 0 0 0 0 0 0 0 0 0 0 0 0 0 127 0" result="hardAlpha"/>
<feOffset dy="2"/>
<feGaussianBlur stdDeviation="2.5"/>
<feComposite in2="hardAlpha" operator="out"/>
<feColorMatrix type="matrix" values="0 0 0 0 0.878499 0 0 0 0 0.878499 0 0 0 0 0.878499 0 0 0 0.3 0"/>
<feBlend mode="normal" in2="BackgroundImageFix" result="effect1_dropShadow_1546_6662"/>
<feBlend mode="normal" in="SourceGraphic" in2="effect1_dropShadow_1546_6662" result="shape"/>
</filter>
<clipPath id="clip0_1546_6662">
<rect width="18" height="18" fill="white" transform="translate(17.0735 15)"/>
</clipPath>
</defs>
</svg>
