<svg width="53" height="53" viewBox="0 0 53 53" fill="none" xmlns="http://www.w3.org/2000/svg">
<g filter="url(#filter0_d_1096_8191)">
<rect x="5" y="3" width="43" height="43" rx="21.5" fill="#B9135B"/>
</g>
<g clip-path="url(#clip0_1096_8191)">
<path fill-rule="evenodd" clip-rule="evenodd" d="M21.2734 15C20.796 15 20.3382 15.1896 20.0006 15.5272C19.6631 15.8648 19.4734 16.3226 19.4734 16.8V19.8H18.2734V21H19.4734V27H18.2734V28.2H19.4734V31.2C19.4734 31.6774 19.6631 32.1352 20.0006 32.4728C20.3382 32.8104 20.796 33 21.2734 33H32.0734C32.5508 33 33.0087 32.8104 33.3462 32.4728C33.6838 32.1352 33.8734 31.6774 33.8734 31.2V16.8C33.8734 16.3226 33.6838 15.8648 33.3462 15.5272C33.0087 15.1896 32.5508 15 32.0734 15H21.2734ZM24.2734 21C24.2734 20.3635 24.5263 19.753 24.9764 19.3029C25.4265 18.8529 26.0369 18.6 26.6734 18.6C27.31 18.6 27.9204 18.8529 28.3705 19.3029C28.8206 19.753 29.0734 20.3635 29.0734 21C29.0734 21.6365 28.8206 22.247 28.3705 22.6971C27.9204 23.1471 27.31 23.4 26.6734 23.4C26.0369 23.4 25.4265 23.1471 24.9764 22.6971C24.5263 22.247 24.2734 21.6365 24.2734 21ZM23.0734 28.2C23.0734 27.2452 23.4527 26.3295 24.1279 25.6544C24.803 24.9793 25.7187 24.6 26.6734 24.6C27.6282 24.6 28.5439 24.9793 29.219 25.6544C29.8942 26.3295 30.2734 27.2452 30.2734 28.2V29.4H23.0734V28.2Z" fill="white"/>
</g>
<defs>
<filter id="filter0_d_1096_8191" x="0" y="0" width="53" height="53" filterUnits="userSpaceOnUse" color-interpolation-filters="sRGB">
<feFlood flood-opacity="0" result="BackgroundImageFix"/>
<feColorMatrix in="SourceAlpha" type="matrix" values="0 0 0 0 0 0 0 0 0 0 0 0 0 0 0 0 0 0 127 0" result="hardAlpha"/>
<feOffset dy="2"/>
<feGaussianBlur stdDeviation="2.5"/>
<feComposite in2="hardAlpha" operator="out"/>
<feColorMatrix type="matrix" values="0 0 0 0 0.878499 0 0 0 0 0.878499 0 0 0 0 0.878499 0 0 0 0.3 0"/>
<feBlend mode="normal" in2="BackgroundImageFix" result="effect1_dropShadow_1096_8191"/>
<feBlend mode="normal" in="SourceGraphic" in2="effect1_dropShadow_1096_8191" result="shape"/>
</filter>
<clipPath id="clip0_1096_8191">
<rect width="18" height="18" fill="white" transform="translate(17.0732 15)"/>
</clipPath>
</defs>
</svg>
