<svg width="56" height="56" viewBox="0 0 56 56" fill="none" xmlns="http://www.w3.org/2000/svg">
<path d="M29.0906 18.3467C28.9005 18.3467 28.7461 18.5011 28.7461 18.6914C28.7461 18.7091 28.7536 18.7245 28.7562 18.7416H28.7461V26.9155C28.7461 27.1058 28.9005 27.2603 29.0906 27.2603H37.2642V27.2501C37.2814 27.2527 37.2967 27.2603 37.3147 27.2603C37.5047 27.2603 37.6592 27.1058 37.6592 26.9155C37.6103 22.2043 33.8018 18.3958 29.0906 18.3467Z" fill="#8981B1"/>
<path d="M35.6666 28.8997C35.6666 28.7094 35.5125 28.555 35.3221 28.555H27.8084C27.717 28.5549 27.6294 28.5186 27.5648 28.4539C27.5002 28.3893 27.4639 28.3016 27.4639 28.2102V20.724H27.4538C27.4564 20.7069 27.4639 20.6915 27.4639 20.6739C27.4639 20.4833 27.3095 20.3291 27.1191 20.3291C27.1108 20.3291 27.1041 20.3333 27.096 20.3338V20.3314C27.0653 20.3312 27.0349 20.3291 27.0042 20.3291C22.2202 20.3291 18.3418 24.2075 18.3418 28.9915C18.3418 33.7755 22.2202 37.6539 27.0042 37.6539C31.7882 37.6539 35.6666 33.7755 35.6666 28.9915C35.6663 28.9641 35.6657 28.9366 35.6648 28.9088C35.6648 28.9055 35.6666 28.9029 35.6666 28.8997Z" fill="#8981B1"/>
</svg>
