<svg width="53" height="53" viewBox="0 0 53 53" fill="none" xmlns="http://www.w3.org/2000/svg">
<g filter="url(#filter0_d_833_11701)">
<rect x="5" y="3" width="43" height="43" rx="21.5" fill="#CC9200"/>
</g>
<path d="M19.25 30.25C19.25 30.6478 19.408 31.0294 19.6893 31.3107C19.9706 31.592 20.3522 31.75 20.75 31.75H31.25C31.6478 31.75 32.0294 31.592 32.3107 31.3107C32.592 31.0294 32.75 30.6478 32.75 30.25V19.75C32.75 19.3522 32.592 18.9706 32.3107 18.6893C32.0294 18.408 31.6478 18.25 31.25 18.25H20.75C20.3522 18.25 19.9706 18.408 19.6893 18.6893C19.408 18.9706 19.25 19.3522 19.25 19.75V30.25ZM26 20.5H30.5V25H29V22H26V20.5ZM21.5 25H23V28H26V29.5H21.5V25Z" fill="white"/>
<defs>
<filter id="filter0_d_833_11701" x="0" y="0" width="53" height="53" filterUnits="userSpaceOnUse" color-interpolation-filters="sRGB">
<feFlood flood-opacity="0" result="BackgroundImageFix"/>
<feColorMatrix in="SourceAlpha" type="matrix" values="0 0 0 0 0 0 0 0 0 0 0 0 0 0 0 0 0 0 127 0" result="hardAlpha"/>
<feOffset dy="2"/>
<feGaussianBlur stdDeviation="2.5"/>
<feComposite in2="hardAlpha" operator="out"/>
<feColorMatrix type="matrix" values="0 0 0 0 0.878499 0 0 0 0 0.878499 0 0 0 0 0.878499 0 0 0 0.3 0"/>
<feBlend mode="normal" in2="BackgroundImageFix" result="effect1_dropShadow_833_11701"/>
<feBlend mode="normal" in="SourceGraphic" in2="effect1_dropShadow_833_11701" result="shape"/>
</filter>
</defs>
</svg>
