<svg width="34" height="34" viewBox="0 0 34 34" fill="none" xmlns="http://www.w3.org/2000/svg">
<rect width="34" height="34" rx="8" fill="#4A436C"/>
<path d="M7.83325 23.4168C7.83325 24.9752 9.02492 26.1668 10.5833 26.1668H23.4166C24.9749 26.1668 26.1666 24.9752 26.1666 23.4168V16.0835H7.83325V23.4168ZM23.4166 9.66683H21.5833V8.75016C21.5833 8.20016 21.2166 7.8335 20.6666 7.8335C20.1166 7.8335 19.7499 8.20016 19.7499 8.75016V9.66683H14.2499V8.75016C14.2499 8.20016 13.8833 7.8335 13.3333 7.8335C12.7833 7.8335 12.4166 8.20016 12.4166 8.75016V9.66683H10.5833C9.02492 9.66683 7.83325 10.8585 7.83325 12.4168V14.2502H26.1666V12.4168C26.1666 10.8585 24.9749 9.66683 23.4166 9.66683Z" fill="white"/>
</svg>
