<svg width="31" height="31" viewBox="0 0 31 31" fill="none" xmlns="http://www.w3.org/2000/svg">
<g clip-path="url(#clip0_1096_8164)">
<path d="M0 9.29961C0 7.59461 1.395 6.19961 3.1 6.19961H7.75L10.85 3.09961H20.15L23.25 6.19961H27.9C28.7222 6.19961 29.5107 6.52622 30.092 7.10758C30.6734 7.68894 31 8.47744 31 9.29961V24.7996C31 25.6218 30.6734 26.4103 30.092 26.9916C29.5107 27.573 28.7222 27.8996 27.9 27.8996H3.1C2.27783 27.8996 1.48933 27.573 0.907969 26.9916C0.326606 26.4103 0 25.6218 0 24.7996V9.29961ZM15.5 24.7996C17.5554 24.7996 19.5267 23.9831 20.9801 22.5297C22.4335 21.0763 23.25 19.105 23.25 17.0496C23.25 14.9942 22.4335 13.0229 20.9801 11.5695C19.5267 10.1161 17.5554 9.29961 15.5 9.29961C13.4446 9.29961 11.4733 10.1161 10.0199 11.5695C8.56651 13.0229 7.75 14.9942 7.75 17.0496C7.75 19.105 8.56651 21.0763 10.0199 22.5297C11.4733 23.9831 13.4446 24.7996 15.5 24.7996ZM15.5 21.6996C14.8894 21.6996 14.2847 21.5793 13.7205 21.3456C13.1564 21.112 12.6437 20.7694 12.212 20.3377C11.7802 19.9059 11.4376 19.3933 11.204 18.8291C10.9703 18.2649 10.85 17.6603 10.85 17.0496C10.85 16.439 10.9703 15.8343 11.204 15.2701C11.4376 14.706 11.7802 14.1934 12.212 13.7616C12.6437 13.3298 13.1564 12.9873 13.7205 12.7536C14.2847 12.5199 14.8894 12.3996 15.5 12.3996C16.7333 12.3996 17.916 12.8895 18.788 13.7616C19.6601 14.6336 20.15 15.8164 20.15 17.0496C20.15 18.2829 19.6601 19.4656 18.788 20.3377C17.916 21.2097 16.7333 21.6996 15.5 21.6996Z" fill="#94979E"/>
</g>
<defs>
<clipPath id="clip0_1096_8164">
<rect width="31" height="31" fill="white"/>
</clipPath>
</defs>
</svg>
