<svg width="53" height="53" viewBox="0 0 53 53" fill="none" xmlns="http://www.w3.org/2000/svg">
<g filter="url(#filter0_d_1653_15494)">
<rect x="5" y="3" width="43" height="43" rx="21.5" fill="#8376BC"/>
</g>
<path d="M21.3394 17.9285H27.9287V32.0713H21.3394C20.7001 32.0713 20.0869 31.8173 19.6348 31.3652C19.1827 30.9131 18.9287 30.3 18.9287 29.6606V20.3392C18.9287 19.6998 19.1827 19.0866 19.6348 18.6345C20.0869 18.1825 20.7001 17.9285 21.3394 17.9285ZM28.893 26.9285V23.0713H33.0716V26.9285H28.893ZM28.893 32.0713V27.8928H33.0716V29.6606C33.0716 30.3 32.8176 30.9131 32.3655 31.3652C31.9134 31.8173 31.3002 32.0713 30.6609 32.0713H28.893ZM28.893 17.9285V22.107H33.0716V20.3392C33.0716 19.6998 32.8176 19.0866 32.3655 18.6345C31.9134 18.1825 31.3002 17.9285 30.6609 17.9285H28.893ZM21.9823 20.8213C21.5387 20.8213 21.1787 21.1813 21.1787 21.6249V23.8749C21.1787 24.3185 21.5387 24.6785 21.9823 24.6785H25.1966C25.6401 24.6785 26.0001 24.3185 26.0001 23.8749V21.6249C26.0001 21.1813 25.6401 20.8213 25.1966 20.8213H21.9823ZM22.143 23.7142V21.7856H25.0359V23.7142H22.143ZM21.1787 26.4463C21.1787 26.7125 21.3947 26.9285 21.6609 26.9285H25.518C25.6459 26.9285 25.7685 26.8777 25.8589 26.7873C25.9493 26.6968 26.0001 26.5742 26.0001 26.4463C26.0001 26.3185 25.9493 26.1958 25.8589 26.1054C25.7685 26.015 25.6459 25.9642 25.518 25.9642H21.6609C21.533 25.9642 21.4103 26.015 21.3199 26.1054C21.2295 26.1958 21.1787 26.3185 21.1787 26.4463ZM21.6609 28.2142C21.533 28.2142 21.4103 28.265 21.3199 28.3554C21.2295 28.4458 21.1787 28.5685 21.1787 28.6963C21.1787 28.8242 21.2295 28.9468 21.3199 29.0373C21.4103 29.1277 21.533 29.1785 21.6609 29.1785H25.518C25.6459 29.1785 25.7685 29.1277 25.8589 29.0373C25.9493 28.9468 26.0001 28.8242 26.0001 28.6963C26.0001 28.5685 25.9493 28.4458 25.8589 28.3554C25.7685 28.265 25.6459 28.2142 25.518 28.2142H21.6609Z" fill="white"/>
<defs>
<filter id="filter0_d_1653_15494" x="0" y="0" width="53" height="53" filterUnits="userSpaceOnUse" color-interpolation-filters="sRGB">
<feFlood flood-opacity="0" result="BackgroundImageFix"/>
<feColorMatrix in="SourceAlpha" type="matrix" values="0 0 0 0 0 0 0 0 0 0 0 0 0 0 0 0 0 0 127 0" result="hardAlpha"/>
<feOffset dy="2"/>
<feGaussianBlur stdDeviation="2.5"/>
<feComposite in2="hardAlpha" operator="out"/>
<feColorMatrix type="matrix" values="0 0 0 0 0.878499 0 0 0 0 0.878499 0 0 0 0 0.878499 0 0 0 0.3 0"/>
<feBlend mode="normal" in2="BackgroundImageFix" result="effect1_dropShadow_1653_15494"/>
<feBlend mode="normal" in="SourceGraphic" in2="effect1_dropShadow_1653_15494" result="shape"/>
</filter>
</defs>
</svg>
