<svg width="56" height="56" viewBox="0 0 56 56" fill="none" xmlns="http://www.w3.org/2000/svg">
<path d="M21.7708 18.25C20.8371 18.25 19.9415 18.6209 19.2812 19.2812C18.6209 19.9415 18.25 20.8371 18.25 21.7708V34.2292C18.25 35.163 18.6209 36.0585 19.2812 36.7188C19.9415 37.3791 20.8371 37.75 21.7708 37.75H34.2292C35.163 37.75 36.0585 37.3791 36.7188 36.7188C37.3791 36.0585 37.75 35.163 37.75 34.2292V21.7708C37.75 20.8371 37.3791 19.9415 36.7188 19.2812C36.0585 18.6209 35.163 18.25 34.2292 18.25H21.7708ZM21.5 23.9375C21.5 22.891 22.3493 22.0417 23.3958 22.0417H32.6042C33.6507 22.0417 34.5 22.891 34.5 23.9375V25.5625C34.5 26.0653 34.3003 26.5475 33.9447 26.9031C33.5892 27.2586 33.107 27.4583 32.6042 27.4583H23.3958C22.893 27.4583 22.4108 27.2586 22.0553 26.9031C21.6997 26.5475 21.5 26.0653 21.5 25.5625V23.9375ZM23.3958 23.6667C23.324 23.6667 23.2551 23.6952 23.2043 23.746C23.1535 23.7968 23.125 23.8657 23.125 23.9375V25.5625C23.125 25.712 23.2463 25.8333 23.3958 25.8333H32.6042C32.676 25.8333 32.7449 25.8048 32.7957 25.754C32.8465 25.7032 32.875 25.6343 32.875 25.5625V23.9375C32.875 23.8657 32.8465 23.7968 32.7957 23.746C32.7449 23.6952 32.676 23.6667 32.6042 23.6667H23.3958ZM22.3125 29.0833H27.1875C27.403 29.0833 27.6097 29.1689 27.762 29.3213C27.9144 29.4737 28 29.6803 28 29.8958C28 30.1113 27.9144 30.318 27.762 30.4704C27.6097 30.6227 27.403 30.7083 27.1875 30.7083H22.3125C22.097 30.7083 21.8903 30.6227 21.738 30.4704C21.5856 30.318 21.5 30.1113 21.5 29.8958C21.5 29.6803 21.5856 29.4737 21.738 29.3213C21.8903 29.1689 22.097 29.0833 22.3125 29.0833ZM21.5 33.1458C21.5 32.9303 21.5856 32.7237 21.738 32.5713C21.8903 32.4189 22.097 32.3333 22.3125 32.3333H27.1875C27.403 32.3333 27.6097 32.4189 27.762 32.5713C27.9144 32.7237 28 32.9303 28 33.1458C28 33.3613 27.9144 33.568 27.762 33.7204C27.6097 33.8727 27.403 33.9583 27.1875 33.9583H22.3125C22.097 33.9583 21.8903 33.8727 21.738 33.7204C21.5856 33.568 21.5 33.3613 21.5 33.1458ZM31.5208 29.0833H32.6042C33.6507 29.0833 34.5 29.9327 34.5 30.9792V32.0625C34.5 32.5653 34.3003 33.0475 33.9447 33.4031C33.5892 33.7586 33.107 33.9583 32.6042 33.9583H31.5208C31.018 33.9583 30.5358 33.7586 30.1803 33.4031C29.8247 33.0475 29.625 32.5653 29.625 32.0625V30.9792C29.625 29.9327 30.4743 29.0833 31.5208 29.0833ZM31.25 30.9792C31.25 30.9073 31.2785 30.8384 31.3293 30.7877C31.3801 30.7369 31.449 30.7083 31.5208 30.7083H32.6042C32.676 30.7083 32.7449 30.7369 32.7957 30.7877C32.8465 30.8384 32.875 30.9073 32.875 30.9792V32.0625C32.875 32.1343 32.8465 32.2032 32.7957 32.254C32.7449 32.3048 32.676 32.3333 32.6042 32.3333H31.5208C31.449 32.3333 31.3801 32.3048 31.3293 32.254C31.2785 32.2032 31.25 32.1343 31.25 32.0625V30.9792Z" fill="#8981B1"/>
</svg>
