<svg width="53" height="53" viewBox="0 0 53 53" fill="none" xmlns="http://www.w3.org/2000/svg">
<g filter="url(#filter0_d_1096_13561)">
<rect x="5" y="3" width="43" height="43" rx="21.5" fill="#01CB9C"/>
</g>
<path fill-rule="evenodd" clip-rule="evenodd" d="M20 18.25C19.6022 18.25 19.2206 18.408 18.9393 18.6893C18.658 18.9706 18.5 19.3522 18.5 19.75V30.25C18.5 30.6478 18.658 31.0294 18.9393 31.3107C19.2206 31.592 19.6022 31.75 20 31.75H32C32.3978 31.75 32.7794 31.592 33.0607 31.3107C33.342 31.0294 33.5 30.6478 33.5 30.25V19.75C33.5 19.3522 33.342 18.9706 33.0607 18.6893C32.7794 18.408 32.3978 18.25 32 18.25H20ZM23.4688 22.4725C23.4854 22.3291 23.5353 22.1916 23.6145 22.0709C23.6938 21.9503 23.8001 21.8498 23.9251 21.7775C24.05 21.7052 24.1901 21.6632 24.3342 21.6547C24.4783 21.6461 24.6224 21.6714 24.755 21.7285C25.133 21.8905 25.931 22.255 26.942 22.8385C27.6525 23.2446 28.3387 23.6918 28.997 24.178C29.1127 24.2641 29.2068 24.3761 29.2715 24.505C29.3363 24.634 29.37 24.7762 29.37 24.9205C29.37 25.0648 29.3363 25.207 29.2715 25.336C29.2068 25.4649 29.1127 25.5769 28.997 25.663C28.3386 26.1486 27.6525 26.5954 26.942 27.001C26.2353 27.4138 25.505 27.7849 24.755 28.1125C24.6224 28.1697 24.4783 28.1951 24.3341 28.1867C24.19 28.1783 24.0498 28.1362 23.9248 28.0639C23.7998 27.9916 23.6935 27.8911 23.6143 27.7703C23.5351 27.6496 23.4852 27.512 23.4688 27.3685C23.3788 26.5556 23.3347 25.7383 23.3368 24.9205C23.3368 23.7572 23.4208 22.8812 23.4688 22.4725Z" fill="white"/>
<defs>
<filter id="filter0_d_1096_13561" x="0" y="0" width="53" height="53" filterUnits="userSpaceOnUse" color-interpolation-filters="sRGB">
<feFlood flood-opacity="0" result="BackgroundImageFix"/>
<feColorMatrix in="SourceAlpha" type="matrix" values="0 0 0 0 0 0 0 0 0 0 0 0 0 0 0 0 0 0 127 0" result="hardAlpha"/>
<feOffset dy="2"/>
<feGaussianBlur stdDeviation="2.5"/>
<feComposite in2="hardAlpha" operator="out"/>
<feColorMatrix type="matrix" values="0 0 0 0 0.878499 0 0 0 0 0.878499 0 0 0 0 0.878499 0 0 0 0.3 0"/>
<feBlend mode="normal" in2="BackgroundImageFix" result="effect1_dropShadow_1096_13561"/>
<feBlend mode="normal" in="SourceGraphic" in2="effect1_dropShadow_1096_13561" result="shape"/>
</filter>
</defs>
</svg>
