<svg width="30" height="30" viewBox="0 0 30 30" fill="none" xmlns="http://www.w3.org/2000/svg">
<rect width="30" height="30" rx="8" fill="#FDE9EC"/>
<path d="M13.5938 9.65625V9.9375H16.4062V9.65625C16.4062 9.28329 16.2581 8.9256 15.9944 8.66188C15.7306 8.39816 15.373 8.25 15 8.25C14.627 8.25 14.2694 8.39816 14.0056 8.66188C13.7419 8.9256 13.5938 9.28329 13.5938 9.65625ZM12.4688 9.9375V9.65625C12.4688 8.98492 12.7354 8.34109 13.2101 7.86639C13.6848 7.39168 14.3287 7.125 15 7.125C15.6713 7.125 16.3152 7.39168 16.7899 7.86639C17.2646 8.34109 17.5312 8.98492 17.5312 9.65625V9.9375H21.75C21.8992 9.9375 22.0423 9.99676 22.1477 10.1023C22.2532 10.2077 22.3125 10.3508 22.3125 10.5C22.3125 10.6492 22.2532 10.7923 22.1477 10.8977C22.0423 11.0032 21.8992 11.0625 21.75 11.0625H20.9018L19.8375 20.382C19.759 21.0684 19.4307 21.7018 18.9151 22.1616C18.3995 22.6214 17.7327 22.8753 17.0419 22.875H12.9581C12.2673 22.8753 11.6005 22.6214 11.0849 22.1616C10.5693 21.7018 10.241 21.0684 10.1625 20.382L9.09825 11.0625H8.25C8.10082 11.0625 7.95774 11.0032 7.85225 10.8977C7.74676 10.7923 7.6875 10.6492 7.6875 10.5C7.6875 10.3508 7.74676 10.2077 7.85225 10.1023C7.95774 9.99676 8.10082 9.9375 8.25 9.9375H12.4688ZM13.875 13.5938C13.875 13.4446 13.8157 13.3015 13.7102 13.196C13.6048 13.0905 13.4617 13.0312 13.3125 13.0312C13.1633 13.0312 13.0202 13.0905 12.9148 13.196C12.8093 13.3015 12.75 13.4446 12.75 13.5938V19.2188C12.75 19.3679 12.8093 19.511 12.9148 19.6165C13.0202 19.722 13.1633 19.7812 13.3125 19.7812C13.4617 19.7812 13.6048 19.722 13.7102 19.6165C13.8157 19.511 13.875 19.3679 13.875 19.2188V13.5938ZM16.6875 13.0312C16.5383 13.0312 16.3952 13.0905 16.2898 13.196C16.1843 13.3015 16.125 13.4446 16.125 13.5938V19.2188C16.125 19.3679 16.1843 19.511 16.2898 19.6165C16.3952 19.722 16.5383 19.7812 16.6875 19.7812C16.8367 19.7812 16.9798 19.722 17.0852 19.6165C17.1907 19.511 17.25 19.3679 17.25 19.2188V13.5938C17.25 13.4446 17.1907 13.3015 17.0852 13.196C16.9798 13.0905 16.8367 13.0312 16.6875 13.0312Z" fill="#EC3150"/>
</svg>
