<svg width="80" height="80" viewBox="0 0 80 80" fill="none" xmlns="http://www.w3.org/2000/svg">
<rect width="80" height="80" rx="40" fill="#FFE3E1"/>
<rect x="10" y="10" width="60" height="60" rx="30" fill="#F44336"/>
<path d="M31.666 55C30.7493 55 29.9649 54.6739 29.3127 54.0217C28.6605 53.3694 28.3338 52.5844 28.3327 51.6667V30H26.666V26.6667H34.9993V25H44.9993V26.6667H53.3327V30H51.666V51.6667C51.666 52.5833 51.3399 53.3683 50.6877 54.0217C50.0355 54.675 49.2505 55.0011 48.3327 55H31.666ZM34.9993 48.3333H38.3327V33.3333H34.9993V48.3333ZM41.666 48.3333H44.9993V33.3333H41.666V48.3333Z" fill="white"/>
</svg>
