<svg width="53" height="53" viewBox="0 0 53 53" fill="none" xmlns="http://www.w3.org/2000/svg">
<g filter="url(#filter0_d_1096_18822)">
<rect x="5" y="3" width="43" height="43" rx="21.5" fill="#9C3042"/>
</g>
<path d="M25.2509 29.125C25.2495 28.1946 25.5155 27.2834 26.0174 26.5H20.9399C20.4929 26.5004 20.0643 26.6781 19.7482 26.9942C19.4321 27.3103 19.2543 27.739 19.2539 28.186V28.876C19.2539 29.305 19.3874 29.7235 19.6364 30.073C20.7929 31.696 22.6859 32.5 25.2509 32.5C25.7009 32.5 26.1302 32.4752 26.5387 32.4257C25.7094 31.5267 25.2495 30.3481 25.2509 29.125ZM25.2509 17.503C26.2455 17.503 27.1993 17.8981 27.9026 18.6013C28.6058 19.3046 29.0009 20.2584 29.0009 21.253C29.0009 22.2476 28.6058 23.2014 27.9026 23.9046C27.1993 24.6079 26.2455 25.003 25.2509 25.003C24.2563 25.003 23.3025 24.6079 22.5993 23.9046C21.896 23.2014 21.5009 22.2476 21.5009 21.253C21.5009 20.2584 21.896 19.3046 22.5993 18.6013C23.3025 17.8981 24.2563 17.503 25.2509 17.503ZM34.2509 29.125C34.2509 30.219 33.8163 31.2682 33.0427 32.0418C32.2691 32.8154 31.2199 33.25 30.1259 33.25C29.0319 33.25 27.9827 32.8154 27.2091 32.0418C26.4355 31.2682 26.0009 30.219 26.0009 29.125C26.0009 28.031 26.4355 26.9818 27.2091 26.2082C27.9827 25.4346 29.0319 25 30.1259 25C31.2199 25 32.2691 25.4346 33.0427 26.2082C33.8163 26.9818 34.2509 28.031 34.2509 29.125ZM30.5422 26.815C30.5164 26.7244 30.4618 26.6448 30.3867 26.588C30.3116 26.5313 30.22 26.5006 30.1259 26.5006C30.0318 26.5006 29.9402 26.5313 29.8651 26.588C29.79 26.6448 29.7354 26.7244 29.7097 26.815L29.2919 28.156H27.9397C27.5152 28.156 27.3397 28.7215 27.6824 28.981L28.7759 29.8097L28.3582 31.15C28.2269 31.5707 28.6889 31.921 29.0324 31.6607L30.1259 30.8327L31.2194 31.6607C31.5629 31.921 32.0249 31.5707 31.8937 31.1507L31.4759 29.8097L32.5694 28.9817C32.9129 28.7215 32.7367 28.156 32.3122 28.156H30.9599L30.5422 26.815Z" fill="white"/>
<defs>
<filter id="filter0_d_1096_18822" x="0" y="0" width="53" height="53" filterUnits="userSpaceOnUse" color-interpolation-filters="sRGB">
<feFlood flood-opacity="0" result="BackgroundImageFix"/>
<feColorMatrix in="SourceAlpha" type="matrix" values="0 0 0 0 0 0 0 0 0 0 0 0 0 0 0 0 0 0 127 0" result="hardAlpha"/>
<feOffset dy="2"/>
<feGaussianBlur stdDeviation="2.5"/>
<feComposite in2="hardAlpha" operator="out"/>
<feColorMatrix type="matrix" values="0 0 0 0 0.878499 0 0 0 0 0.878499 0 0 0 0 0.878499 0 0 0 0.3 0"/>
<feBlend mode="normal" in2="BackgroundImageFix" result="effect1_dropShadow_1096_18822"/>
<feBlend mode="normal" in="SourceGraphic" in2="effect1_dropShadow_1096_18822" result="shape"/>
</filter>
</defs>
</svg>
