<svg width="30" height="30" viewBox="0 0 30 30" fill="none" xmlns="http://www.w3.org/2000/svg">
<rect width="30" height="30" rx="8" fill="#E7F2FF"/>
<path d="M17.6288 8.58554C18.1329 8.09307 18.8108 7.81918 19.5155 7.82329C20.2202 7.82739 20.8949 8.10915 21.3932 8.60746C21.8915 9.10577 22.1733 9.78045 22.1774 10.4852C22.1815 11.1899 21.9076 11.8678 21.4151 12.3718L20.813 12.9739L17.0267 9.18764L17.6288 8.58554ZM16.3904 9.82484L9.19131 17.0239C8.8968 17.3189 8.69234 17.6917 8.60181 18.0985L7.81161 21.6535C7.79508 21.7275 7.79751 21.8045 7.81865 21.8772C7.8398 21.95 7.87899 22.0163 7.93258 22.0699C7.98618 22.1235 8.05244 22.1627 8.12522 22.1838C8.198 22.2049 8.27494 22.2074 8.34891 22.1908L11.8823 21.4051C12.3033 21.3123 12.6888 21.1005 12.9929 20.7949L20.1767 13.6111L16.3904 9.82484Z" fill="#007BFF"/>
</svg>
