<svg width="53" height="53" viewBox="0 0 53 53" fill="none" xmlns="http://www.w3.org/2000/svg">
<g filter="url(#filter0_d_1546_8387)">
<rect x="5" y="3" width="43" height="43" rx="21.5" fill="#4A436C"/>
</g>
<path d="M25.3565 23.0948C27.1404 23.0948 28.5865 21.6486 28.5865 19.8648C28.5865 18.0809 27.1404 16.6348 25.3565 16.6348C23.5726 16.6348 22.1265 18.0809 22.1265 19.8648C22.1265 21.6486 23.5726 23.0948 25.3565 23.0948Z" fill="white"/>
<path d="M27.4265 29H30.9265V29.7H27.4265V29Z" fill="white"/>
<path d="M24.4265 30.0001V31.5001C24.4265 31.6327 24.4792 31.7599 24.573 31.8537C24.6667 31.9474 24.7939 32.0001 24.9265 32.0001H33.4265C33.5591 32.0001 33.6863 31.9474 33.7801 31.8537C33.8739 31.7599 33.9265 31.6327 33.9265 31.5001V26.5001C33.9265 26.3675 33.8739 26.2403 33.7801 26.1466C33.6863 26.0528 33.5591 26.0001 33.4265 26.0001H29.9265V25.2651C29.9265 25.1325 29.8739 25.0053 29.7801 24.9116C29.6863 24.8178 29.5591 24.7651 29.4265 24.7651C29.2939 24.7651 29.1667 24.8178 29.073 24.9116C28.9792 25.0053 28.9265 25.1325 28.9265 25.2651V26.0001H27.9265V24.2101C27.0769 24.0711 26.2175 24.0009 25.3565 24.0001C23.4579 23.992 21.5806 24.3999 19.8565 25.1951C19.5728 25.329 19.3334 25.5415 19.1668 25.8074C19.0002 26.0733 18.9133 26.3814 18.9165 26.6951V30.0001H24.4265ZM32.9265 31.0001H25.4265V27.0001H28.9265V27.2101C28.9265 27.3427 28.9792 27.4699 29.073 27.5637C29.1667 27.6574 29.2939 27.7101 29.4265 27.7101C29.5591 27.7101 29.6863 27.6574 29.7801 27.5637C29.8739 27.4699 29.9265 27.3427 29.9265 27.2101V27.0001H32.9265V31.0001Z" fill="white"/>
<defs>
<filter id="filter0_d_1546_8387" x="0" y="0" width="53" height="53" filterUnits="userSpaceOnUse" color-interpolation-filters="sRGB">
<feFlood flood-opacity="0" result="BackgroundImageFix"/>
<feColorMatrix in="SourceAlpha" type="matrix" values="0 0 0 0 0 0 0 0 0 0 0 0 0 0 0 0 0 0 127 0" result="hardAlpha"/>
<feOffset dy="2"/>
<feGaussianBlur stdDeviation="2.5"/>
<feComposite in2="hardAlpha" operator="out"/>
<feColorMatrix type="matrix" values="0 0 0 0 0.878499 0 0 0 0 0.878499 0 0 0 0 0.878499 0 0 0 0.3 0"/>
<feBlend mode="normal" in2="BackgroundImageFix" result="effect1_dropShadow_1546_8387"/>
<feBlend mode="normal" in="SourceGraphic" in2="effect1_dropShadow_1546_8387" result="shape"/>
</filter>
</defs>
</svg>
