<svg width="53" height="53" viewBox="0 0 53 53" fill="none" xmlns="http://www.w3.org/2000/svg">
<g filter="url(#filter0_d_1096_7265)">
<rect x="5" y="3" width="43" height="43" rx="21.5" fill="#4A436C"/>
</g>
<path d="M25.357 23.0948C27.1408 23.0948 28.587 21.6486 28.587 19.8648C28.587 18.0809 27.1408 16.6348 25.357 16.6348C23.5731 16.6348 22.127 18.0809 22.127 19.8648C22.127 21.6486 23.5731 23.0948 25.357 23.0948Z" fill="white"/>
<path d="M27.4268 29H30.9268V29.7H27.4268V29Z" fill="white"/>
<path d="M24.4266 30.0001V31.5001C24.4266 31.6327 24.4793 31.7599 24.573 31.8537C24.6668 31.9474 24.794 32.0001 24.9266 32.0001H33.4266C33.5592 32.0001 33.6864 31.9474 33.7801 31.8537C33.8739 31.7599 33.9266 31.6327 33.9266 31.5001V26.5001C33.9266 26.3675 33.8739 26.2403 33.7801 26.1466C33.6864 26.0528 33.5592 26.0001 33.4266 26.0001H29.9266V25.2651C29.9266 25.1325 29.8739 25.0053 29.7801 24.9116C29.6864 24.8178 29.5592 24.7651 29.4266 24.7651C29.294 24.7651 29.1668 24.8178 29.073 24.9116C28.9793 25.0053 28.9266 25.1325 28.9266 25.2651V26.0001H27.9266V24.2101C27.077 24.0711 26.2175 24.0009 25.3566 24.0001C23.458 23.992 21.5807 24.3999 19.8566 25.1951C19.5728 25.329 19.3334 25.5415 19.1668 25.8074C19.0002 26.0733 18.9134 26.3814 18.9166 26.6951V30.0001H24.4266ZM32.9266 31.0001H25.4266V27.0001H28.9266V27.2101C28.9266 27.3427 28.9793 27.4699 29.073 27.5637C29.1668 27.6574 29.294 27.7101 29.4266 27.7101C29.5592 27.7101 29.6864 27.6574 29.7801 27.5637C29.8739 27.4699 29.9266 27.3427 29.9266 27.2101V27.0001H32.9266V31.0001Z" fill="white"/>
<defs>
<filter id="filter0_d_1096_7265" x="0" y="0" width="53" height="53" filterUnits="userSpaceOnUse" color-interpolation-filters="sRGB">
<feFlood flood-opacity="0" result="BackgroundImageFix"/>
<feColorMatrix in="SourceAlpha" type="matrix" values="0 0 0 0 0 0 0 0 0 0 0 0 0 0 0 0 0 0 127 0" result="hardAlpha"/>
<feOffset dy="2"/>
<feGaussianBlur stdDeviation="2.5"/>
<feComposite in2="hardAlpha" operator="out"/>
<feColorMatrix type="matrix" values="0 0 0 0 0.878499 0 0 0 0 0.878499 0 0 0 0 0.878499 0 0 0 0.3 0"/>
<feBlend mode="normal" in2="BackgroundImageFix" result="effect1_dropShadow_1096_7265"/>
<feBlend mode="normal" in="SourceGraphic" in2="effect1_dropShadow_1096_7265" result="shape"/>
</filter>
</defs>
</svg>
