<svg width="53" height="53" viewBox="0 0 53 53" fill="none" xmlns="http://www.w3.org/2000/svg">
<g filter="url(#filter0_d_1037_18020)">
<rect x="5" y="3" width="43" height="43" rx="21.5" fill="#EC468E"/>
</g>
<path d="M26.2941 23.99C27.6085 23.99 28.6741 22.9379 28.6741 21.64C28.6741 20.3422 27.6085 19.29 26.2941 19.29C24.9796 19.29 23.9141 20.3422 23.9141 21.64C23.9141 22.9379 24.9796 23.99 26.2941 23.99Z" fill="white"/>
<path d="M22.6849 21.875H22.9249V21.66C22.9264 21.0348 23.1028 20.4225 23.4341 19.8923C23.7655 19.3621 24.2386 18.9353 24.7999 18.66C24.6338 18.2773 24.367 17.9467 24.028 17.7034C23.6891 17.4601 23.2906 17.3131 22.8748 17.2782C22.459 17.2432 22.0415 17.3214 21.6667 17.5047C21.2918 17.6879 20.9736 17.9692 20.7458 18.3188C20.518 18.6683 20.3891 19.0731 20.3728 19.49C20.3566 19.9069 20.4535 20.3205 20.6534 20.6867C20.8533 21.053 21.1487 21.3582 21.5081 21.5701C21.8676 21.7819 22.2777 21.8925 22.6949 21.89L22.6849 21.875ZM29.6749 21.64V21.855H29.9149C30.3266 21.8508 30.7296 21.7358 31.0814 21.522C31.4332 21.3081 31.7208 21.0034 31.9141 20.6399C32.1073 20.2763 32.1989 19.8674 32.1794 19.4562C32.1598 19.045 32.0297 18.6466 31.8028 18.3031C31.5759 17.9595 31.2606 17.6835 30.8901 17.5041C30.5196 17.3246 30.1075 17.2484 29.6973 17.2834C29.2871 17.3184 28.8939 17.4633 28.5591 17.7029C28.2243 17.9425 27.9604 18.268 27.7949 18.645C28.3564 18.9192 28.8301 19.345 29.1623 19.8742C29.4945 20.4035 29.6721 21.0151 29.6749 21.64ZM28.4399 24.225C29.434 24.4221 30.3952 24.7587 31.2949 25.225C31.4217 25.2945 31.5365 25.384 31.6349 25.49H34.2949V23.78C34.2954 23.7144 34.278 23.6499 34.2445 23.5935C34.211 23.5371 34.1627 23.4909 34.1049 23.46C32.809 22.7821 31.3674 22.4303 29.9049 22.435H29.5749C29.4016 23.1393 29.0031 23.7679 28.4399 24.225ZM20.5599 26.46C20.559 26.2082 20.627 25.9609 20.7566 25.745C20.8861 25.529 21.0723 25.3527 21.2949 25.235C22.1947 24.7687 23.1559 24.4321 24.1499 24.235C23.5895 23.7817 23.1912 23.1589 23.0149 22.46H22.6849C21.2224 22.4553 19.7809 22.8071 18.4849 23.485C18.4271 23.5159 18.3789 23.5621 18.3454 23.6185C18.3119 23.6749 18.2944 23.7394 18.2949 23.805V27H20.5599V26.46ZM28.0249 29.345H31.0049V30.045H28.0249V29.345Z" fill="white"/>
<path d="M33.7006 26.6301H30.2656V26.1301C30.2656 25.9975 30.2129 25.8703 30.1191 25.7765C30.0253 25.6827 29.8982 25.6301 29.7656 25.6301C29.6329 25.6301 29.5058 25.6827 29.412 25.7765C29.3182 25.8703 29.2656 25.9975 29.2656 26.1301V26.6301H28.2956V25.2151C27.6378 25.0764 26.9678 25.0043 26.2956 25.0001C24.7175 24.9941 23.1621 25.3752 21.7656 26.1101C21.7034 26.1423 21.6513 26.1912 21.6151 26.2512C21.5789 26.3112 21.5601 26.38 21.5606 26.4501V29.2551H25.1156V32.3001C25.1156 32.4327 25.1682 32.5599 25.262 32.6536C25.3558 32.7474 25.4829 32.8001 25.6156 32.8001H33.7006C33.8332 32.8001 33.9603 32.7474 34.0541 32.6536C34.1479 32.5599 34.2006 32.4327 34.2006 32.3001V27.1301C34.2006 26.9975 34.1479 26.8703 34.0541 26.7765C33.9603 26.6827 33.8332 26.6301 33.7006 26.6301ZM33.2006 31.8101H26.1156V27.6301H29.2656V28.0851C29.2656 28.2177 29.3182 28.3449 29.412 28.4386C29.5058 28.5324 29.6329 28.5851 29.7656 28.5851C29.8982 28.5851 30.0253 28.5324 30.1191 28.4386C30.2129 28.3449 30.2656 28.2177 30.2656 28.0851V27.6301H33.2006V31.8101Z" fill="white"/>
<defs>
<filter id="filter0_d_1037_18020" x="0" y="0" width="53" height="53" filterUnits="userSpaceOnUse" color-interpolation-filters="sRGB">
<feFlood flood-opacity="0" result="BackgroundImageFix"/>
<feColorMatrix in="SourceAlpha" type="matrix" values="0 0 0 0 0 0 0 0 0 0 0 0 0 0 0 0 0 0 127 0" result="hardAlpha"/>
<feOffset dy="2"/>
<feGaussianBlur stdDeviation="2.5"/>
<feComposite in2="hardAlpha" operator="out"/>
<feColorMatrix type="matrix" values="0 0 0 0 0.878499 0 0 0 0 0.878499 0 0 0 0 0.878499 0 0 0 0.3 0"/>
<feBlend mode="normal" in2="BackgroundImageFix" result="effect1_dropShadow_1037_18020"/>
<feBlend mode="normal" in="SourceGraphic" in2="effect1_dropShadow_1037_18020" result="shape"/>
</filter>
</defs>
</svg>
