<svg width="53" height="53" viewBox="0 0 53 53" fill="none" xmlns="http://www.w3.org/2000/svg">
<g filter="url(#filter0_d_1447_7421)">
<rect x="5" y="3" width="43" height="43" rx="21.5" fill="#EC468E"/>
</g>
<path d="M26.2946 23.99C27.609 23.99 28.6746 22.9379 28.6746 21.64C28.6746 20.3422 27.609 19.29 26.2946 19.29C24.9801 19.29 23.9146 20.3422 23.9146 21.64C23.9146 22.9379 24.9801 23.99 26.2946 23.99Z" fill="white"/>
<path d="M22.6844 21.875H22.9244V21.66C22.9259 21.0348 23.1023 20.4225 23.4336 19.8923C23.765 19.3621 24.2381 18.9353 24.7994 18.66C24.6333 18.2773 24.3665 17.9467 24.0276 17.7034C23.6886 17.4601 23.2901 17.3131 22.8743 17.2782C22.4585 17.2432 22.041 17.3214 21.6662 17.5047C21.2913 17.6879 20.9731 17.9692 20.7453 18.3188C20.5175 18.6683 20.3886 19.0731 20.3723 19.49C20.3561 19.9069 20.453 20.3205 20.6529 20.6867C20.8528 21.053 21.1482 21.3582 21.5076 21.5701C21.8671 21.7819 22.2772 21.8925 22.6944 21.89L22.6844 21.875ZM29.6744 21.64V21.855H29.9144C30.3261 21.8508 30.7291 21.7358 31.0809 21.522C31.4327 21.3081 31.7203 21.0034 31.9136 20.6399C32.1068 20.2763 32.1984 19.8674 32.1789 19.4562C32.1593 19.045 32.0292 18.6466 31.8023 18.3031C31.5754 17.9595 31.2601 17.6835 30.8896 17.5041C30.5191 17.3246 30.107 17.2484 29.6968 17.2834C29.2866 17.3184 28.8934 17.4633 28.5586 17.7029C28.2239 17.9425 27.9599 18.268 27.7944 18.645C28.356 18.9192 28.8296 19.345 29.1618 19.8742C29.494 20.4035 29.6716 21.0151 29.6744 21.64ZM28.4394 24.225C29.4335 24.4221 30.3947 24.7587 31.2944 25.225C31.4212 25.2945 31.536 25.384 31.6344 25.49H34.2944V23.78C34.2949 23.7144 34.2775 23.6499 34.244 23.5935C34.2105 23.5371 34.1623 23.4909 34.1044 23.46C32.8085 22.7821 31.3669 22.4303 29.9044 22.435H29.5744C29.4012 23.1393 29.0026 23.7679 28.4394 24.225ZM20.5594 26.46C20.5585 26.2082 20.6265 25.9609 20.7561 25.745C20.8857 25.529 21.0718 25.3527 21.2944 25.235C22.1942 24.7687 23.1554 24.4321 24.1494 24.235C23.589 23.7817 23.1907 23.1589 23.0144 22.46H22.6844C21.222 22.4553 19.7804 22.8071 18.4844 23.485C18.4266 23.5159 18.3784 23.5621 18.3449 23.6185C18.3114 23.6749 18.294 23.7394 18.2944 23.805V27H20.5594V26.46ZM28.0244 29.345H31.0044V30.045H28.0244V29.345Z" fill="white"/>
<path d="M33.6996 26.6301H30.2646V26.1301C30.2646 25.9975 30.2119 25.8703 30.1181 25.7765C30.0244 25.6827 29.8972 25.6301 29.7646 25.6301C29.632 25.6301 29.5048 25.6827 29.411 25.7765C29.3173 25.8703 29.2646 25.9975 29.2646 26.1301V26.6301H28.2946V25.2151C27.6368 25.0764 26.9668 25.0043 26.2946 25.0001C24.7165 24.9941 23.1611 25.3752 21.7646 26.1101C21.7024 26.1423 21.6503 26.1912 21.6141 26.2512C21.578 26.3112 21.5591 26.38 21.5596 26.4501V29.2551H25.1146V32.3001C25.1146 32.4327 25.1673 32.5599 25.261 32.6536C25.3548 32.7474 25.482 32.8001 25.6146 32.8001H33.6996C33.8322 32.8001 33.9594 32.7474 34.0531 32.6536C34.1469 32.5599 34.1996 32.4327 34.1996 32.3001V27.1301C34.1996 26.9975 34.1469 26.8703 34.0531 26.7765C33.9594 26.6827 33.8322 26.6301 33.6996 26.6301ZM33.1996 31.8101H26.1146V27.6301H29.2646V28.0851C29.2646 28.2177 29.3173 28.3449 29.411 28.4386C29.5048 28.5324 29.632 28.5851 29.7646 28.5851C29.8972 28.5851 30.0244 28.5324 30.1181 28.4386C30.2119 28.3449 30.2646 28.2177 30.2646 28.0851V27.6301H33.1996V31.8101Z" fill="white"/>
<defs>
<filter id="filter0_d_1447_7421" x="0" y="0" width="53" height="53" filterUnits="userSpaceOnUse" color-interpolation-filters="sRGB">
<feFlood flood-opacity="0" result="BackgroundImageFix"/>
<feColorMatrix in="SourceAlpha" type="matrix" values="0 0 0 0 0 0 0 0 0 0 0 0 0 0 0 0 0 0 127 0" result="hardAlpha"/>
<feOffset dy="2"/>
<feGaussianBlur stdDeviation="2.5"/>
<feComposite in2="hardAlpha" operator="out"/>
<feColorMatrix type="matrix" values="0 0 0 0 0.878499 0 0 0 0 0.878499 0 0 0 0 0.878499 0 0 0 0.3 0"/>
<feBlend mode="normal" in2="BackgroundImageFix" result="effect1_dropShadow_1447_7421"/>
<feBlend mode="normal" in="SourceGraphic" in2="effect1_dropShadow_1447_7421" result="shape"/>
</filter>
</defs>
</svg>
