<svg width="34" height="34" viewBox="0 0 34 34" fill="none" xmlns="http://www.w3.org/2000/svg">
<rect width="34" height="34" rx="8" fill="#4A436C"/>
<path fill-rule="evenodd" clip-rule="evenodd" d="M9.4375 8.75C9.25516 8.75 9.0803 8.82243 8.95136 8.95136C8.82243 9.0803 8.75 9.25516 8.75 9.4375V24.5625C8.75 24.7448 8.82243 24.9197 8.95136 25.0486C9.0803 25.1776 9.25516 25.25 9.4375 25.25H24.5625C24.7448 25.25 24.9197 25.1776 25.0486 25.0486C25.1776 24.9197 25.25 24.7448 25.25 24.5625V9.4375C25.25 9.25516 25.1776 9.0803 25.0486 8.95136C24.9197 8.82243 24.7448 8.75 24.5625 8.75H9.4375ZM11.5 14.25H19.75V12.875H11.5V14.25ZM21.125 14.25H22.5V12.875H21.125V14.25ZM19.75 17.6875H11.5V16.3125H19.75V17.6875ZM21.125 17.6875H22.5V16.3125H21.125V17.6875ZM19.75 21.125H11.5V19.75H19.75V21.125ZM21.125 21.125H22.5V19.75H21.125V21.125Z" fill="white"/>
</svg>
