<svg width="53" height="53" viewBox="0 0 53 53" fill="none" xmlns="http://www.w3.org/2000/svg">
<g filter="url(#filter0_d_692_5958)">
<rect x="5" y="3" width="43" height="43" rx="21.5" fill="#9C3042"/>
</g>
<g clip-path="url(#clip0_692_5958)">
<path fill-rule="evenodd" clip-rule="evenodd" d="M19.5714 16C19.4492 16 19.3295 16.0348 19.2263 16.1004C19.1232 16.1659 19.0408 16.2596 18.989 16.3703L17.0604 20.4961C17.0131 20.5977 16.9932 20.7098 17.0026 20.8214H17V22.0364C17 22.7101 17.2906 23.3556 17.81 23.8313C18.3269 24.307 19.0301 24.5744 19.763 24.5744H20.1487C20.87 24.579 21.567 24.314 22.103 23.8313C22.3147 23.6367 22.4861 23.419 22.6173 23.1781C22.7806 22.9596 23.0454 22.9596 23.1984 23.1601C23.3313 23.4087 23.5057 23.6324 23.7217 23.8313C24.2399 24.307 24.9431 24.5744 25.676 24.5744H26.3664C27.0877 24.579 27.7847 24.314 28.3207 23.8313C28.5221 23.6453 28.6876 23.4379 28.817 23.209C28.9854 22.9454 29.2799 22.9519 29.4341 23.1961C29.5653 23.4301 29.7333 23.6419 29.9381 23.8313C30.4563 24.307 31.1596 24.5744 31.8924 24.5744H32.237C32.9583 24.579 33.6553 24.314 34.1913 23.8313C34.7094 23.3556 35 22.7101 35 22.0364V20.8214H34.9974C35.0068 20.7098 34.9869 20.5977 34.9396 20.4961L33.011 16.3703C32.9592 16.2596 32.8768 16.1659 32.7737 16.1004C32.6705 16.0348 32.5508 16 32.4286 16H19.5714ZM18.2857 32.7143V25.9373C19.8131 26.4413 21.635 26.2163 22.886 25.2481C24.5549 26.539 27.449 26.539 29.1166 25.2481C30.374 26.2201 32.192 26.4413 33.7143 25.9244V32.7143C33.7143 33.0553 33.5788 33.3823 33.3377 33.6234C33.0966 33.8645 32.7696 34 32.4286 34H30.815V29.1271C30.8156 29.0894 30.8078 29.0519 30.7922 29.0175C30.7767 28.983 30.7537 28.9524 30.725 28.9279C30.665 28.874 30.587 28.8446 30.5064 28.8456H27.9453C27.8647 28.8446 27.7867 28.874 27.7267 28.9279C27.698 28.9524 27.675 28.983 27.6595 29.0175C27.6439 29.0519 27.6361 29.0894 27.6367 29.1271V34H19.5714C19.2304 34 18.9034 33.8645 18.6623 33.6234C18.4212 33.3823 18.2857 33.0553 18.2857 32.7143ZM20.2169 29.8343V28.2143C20.2169 28.0438 20.2846 27.8803 20.4051 27.7597C20.5257 27.6392 20.6892 27.5714 20.8597 27.5714H24.7349C24.9054 27.5714 25.0689 27.6392 25.1894 27.7597C25.31 27.8803 25.3777 28.0438 25.3777 28.2143V29.8343C25.3777 30.0048 25.31 30.1683 25.1894 30.2889C25.0689 30.4094 24.9054 30.4771 24.7349 30.4771H20.8597C20.6892 30.4771 20.5257 30.4094 20.4051 30.2889C20.2846 30.1683 20.2169 30.0048 20.2169 29.8343Z" fill="white"/>
</g>
<defs>
<filter id="filter0_d_692_5958" x="0" y="0" width="53" height="53" filterUnits="userSpaceOnUse" color-interpolation-filters="sRGB">
<feFlood flood-opacity="0" result="BackgroundImageFix"/>
<feColorMatrix in="SourceAlpha" type="matrix" values="0 0 0 0 0 0 0 0 0 0 0 0 0 0 0 0 0 0 127 0" result="hardAlpha"/>
<feOffset dy="2"/>
<feGaussianBlur stdDeviation="2.5"/>
<feComposite in2="hardAlpha" operator="out"/>
<feColorMatrix type="matrix" values="0 0 0 0 0.878499 0 0 0 0 0.878499 0 0 0 0 0.878499 0 0 0 0.3 0"/>
<feBlend mode="normal" in2="BackgroundImageFix" result="effect1_dropShadow_692_5958"/>
<feBlend mode="normal" in="SourceGraphic" in2="effect1_dropShadow_692_5958" result="shape"/>
</filter>
<clipPath id="clip0_692_5958">
<rect width="18" height="18" fill="white" transform="translate(17 16)"/>
</clipPath>
</defs>
</svg>
