<svg width="56" height="56" viewBox="0 0 56 56" fill="none" xmlns="http://www.w3.org/2000/svg">
<path d="M21.344 17.8876C23.0893 17.0946 25.4439 16.625 28 16.625C30.5561 16.625 32.9107 17.0946 34.656 17.8876C36.3281 18.6481 37.75 19.8636 37.75 21.5C37.75 23.1364 36.3281 24.3519 34.656 25.1124C32.9107 25.9054 30.5561 26.375 28 26.375C25.4439 26.375 23.0893 25.9054 21.344 25.1124C19.6719 24.3519 18.25 23.1364 18.25 21.5C18.25 19.8636 19.6719 18.6481 21.344 17.8876Z" fill="#8981B1"/>
<path d="M18.25 25.0117V26.3751C18.25 28.0115 19.6719 29.227 21.344 29.9875C23.0893 30.7788 25.4439 31.2501 28 31.2501C30.5561 31.2501 32.9107 30.7805 34.656 29.9875C36.3281 29.227 37.75 28.0115 37.75 26.3751V25.0117C37.0074 25.7137 36.1185 26.2321 35.3288 26.5912C33.3268 27.5012 30.7333 28.0001 28 28.0001C25.2667 28.0001 22.6733 27.5012 20.6713 26.5912C19.8815 26.2337 18.9926 25.7137 18.25 25.0117Z" fill="#8981B1"/>
<path d="M18.25 29.8867V31.2501C18.25 32.8865 19.6719 34.102 21.344 34.8625C23.0893 35.6555 25.4439 36.1251 28 36.1251C30.5561 36.1251 32.9107 35.6555 34.656 34.8625C36.3281 34.102 37.75 32.8865 37.75 31.2501V29.8867C37.0074 30.5887 36.1185 31.1071 35.3288 31.4662C33.3268 32.3762 30.7333 32.8751 28 32.8751C25.2667 32.8751 22.6733 32.3762 20.6713 31.4662C19.8815 31.1087 18.9926 30.5887 18.25 29.8867Z" fill="#8981B1"/>
<path d="M18.25 34.7617V36.1251C18.25 37.7615 19.6719 38.977 21.344 39.7375C23.0893 40.5305 25.4439 41.0001 28 41.0001C30.5561 41.0001 32.9107 40.5305 34.656 39.7375C36.3281 38.977 37.75 37.7615 37.75 36.1251V34.7617C37.0074 35.4637 36.1185 35.9821 35.3288 36.3412C33.3268 37.2512 30.7333 37.7501 28 37.7501C25.2667 37.7501 22.6733 37.2512 20.6713 36.3412C19.8815 35.9837 18.9926 35.4637 18.25 34.7617Z" fill="#8981B1"/>
</svg>
