<svg width="21" height="21" viewBox="0 0 21 21" fill="none" xmlns="http://www.w3.org/2000/svg">
<path d="M2.625 20.5137C2.00625 20.5137 1.47675 20.2935 1.0365 19.8533C0.59625 19.413 0.37575 18.8832 0.375 18.2637V2.51367C0.375 1.89492 0.5955 1.36542 1.0365 0.925172C1.4775 0.484922 2.007 0.264422 2.625 0.263672H18.375C18.9937 0.263672 19.5236 0.484172 19.9646 0.925172C20.4056 1.36617 20.6257 1.89567 20.625 2.51367V18.2637C20.625 18.8824 20.4049 19.4123 19.9646 19.8533C19.5244 20.2943 18.9945 20.5144 18.375 20.5137H2.625ZM3.75 16.0137H17.25L13.0312 10.3887L9.65625 14.8887L7.125 11.5137L3.75 16.0137Z" fill="#F99F39"/>
</svg>
