<svg width="168" height="151" viewBox="0 0 168 151" fill="none" xmlns="http://www.w3.org/2000/svg">
<g clip-path="url(#clip0_1270_2500)">
<path d="M160.575 94.0323H64.0038C58.2243 94.0323 54.6789 87.6992 57.7 82.7723L105.986 4.029C108.871 -0.676335 115.708 -0.676335 118.593 4.029L166.879 82.7723C169.9 87.6992 166.355 94.0323 160.575 94.0323Z" fill="#2196F3"/>
<path d="M112.29 79.4017C116.407 79.4017 119.744 76.0645 119.744 71.9479C119.744 67.8313 116.407 64.4941 112.29 64.4941C108.174 64.4941 104.836 67.8313 104.836 71.9479C104.836 76.0645 108.174 79.4017 112.29 79.4017Z" fill="white"/>
<path d="M116.826 22.9629H107.754C106.48 22.9629 105.481 24.0572 105.597 25.3256L108.612 58.2839C108.714 59.3992 109.649 60.2527 110.768 60.2527H113.81C114.93 60.2527 115.865 59.3992 115.967 58.2839L118.982 25.3256C119.098 24.0572 118.099 22.9629 116.825 22.9629H116.826Z" fill="white"/>
<path d="M33.1044 125.554L12.9161 148.736C11.1799 150.73 8.21259 151.081 6.06054 149.544C5.20701 148.935 4.27324 148.167 3.31211 147.205C2.35007 146.243 1.58226 145.31 0.972207 144.457C-0.563412 142.304 -0.212335 139.339 1.78014 137.601L24.964 117.413L33.1035 125.553L33.1044 125.554Z" fill="#1B1C1E"/>
<path d="M64.9102 117.077C82.2901 117.077 96.3794 102.988 96.3794 85.6079C96.3794 68.2279 82.2901 54.1387 64.9102 54.1387C47.5302 54.1387 33.4409 68.2279 33.4409 85.6079C33.4409 102.988 47.5302 117.077 64.9102 117.077Z" fill="#E8EFFF"/>
<path d="M40.1022 106.151L32.4175 113.836L36.6828 118.101L44.3676 110.417L40.1022 106.151Z" fill="#606163"/>
<path d="M38.6545 119.257L35.0215 123.43L27.0908 115.499L31.2645 111.866C32.0159 111.212 33.1448 111.251 33.8488 111.955L38.566 116.673C39.27 117.377 39.3101 118.505 38.6554 119.257H38.6545Z" fill="#1B1C1E"/>
<path d="M96.3795 85.609C96.3795 88.5261 95.9828 91.3511 95.2396 94.0321H64.0038C58.2243 94.0321 54.6789 87.699 57.7 82.7721L74.3702 55.5869C87.1275 59.6029 96.3795 71.5249 96.3795 85.609Z" fill="#C7E6FF"/>
<path d="M97.4253 72.4079C95.6599 68.0536 93.0665 64.1489 89.718 60.8005C86.3705 57.452 82.4649 54.8595 78.1106 53.0941C73.9068 51.3898 69.4659 50.5244 64.9101 50.5244C60.3543 50.5244 55.9134 51.3889 51.7096 53.0941C47.3563 54.8595 43.4507 57.452 40.1022 60.8005C36.7547 64.1489 34.1613 68.0536 32.3959 72.4079C30.6916 76.6117 29.8262 81.0526 29.8262 85.6084C29.8262 90.1642 30.6906 94.605 32.3959 98.8088C34.1613 103.163 36.7547 107.069 40.1022 110.416C43.4507 113.765 47.3563 116.357 51.7096 118.124C55.9134 119.828 60.3552 120.692 64.9101 120.692C69.465 120.692 73.9077 119.828 78.1106 118.124C82.4649 116.358 86.3705 113.765 89.718 110.416C93.0665 107.069 95.659 103.163 97.4253 98.8088C99.1296 94.605 99.9941 90.1642 99.9941 85.6084C99.9941 81.0526 99.1296 76.6117 97.4253 72.4079ZM85.454 106.151C79.9663 111.639 72.6712 114.661 64.9101 114.661C57.1491 114.661 49.8549 111.639 44.3671 106.151C38.8794 100.665 35.8574 93.3685 35.8574 85.6084C35.8574 77.8482 38.8794 70.5531 44.3671 65.0654C49.8549 59.5776 57.15 56.5556 64.9101 56.5556C72.6703 56.5556 79.9663 59.5776 85.454 65.0654C90.9409 70.5531 93.9629 77.8482 93.9629 85.6084C93.9629 93.3685 90.9409 100.665 85.454 106.151Z" fill="#1B1C1E"/>
<path d="M64.9103 116.029C56.7845 116.029 49.1456 112.864 43.3998 107.119C37.654 101.373 34.4897 93.7339 34.4897 85.6081C34.4897 77.4822 37.654 69.8434 43.3998 64.0976C49.1456 58.3518 56.7845 55.1875 64.9103 55.1875C73.0361 55.1875 80.675 58.3518 86.4208 64.0976C92.1666 69.8434 95.3309 77.4822 95.3309 85.6081C95.3309 93.7339 92.1666 101.373 86.4208 107.119C80.675 112.864 73.0361 116.029 64.9103 116.029ZM64.9103 57.9241C57.5158 57.9241 50.5636 60.8038 45.3348 66.0326C40.1061 71.2613 37.2263 78.2136 37.2263 85.6081C37.2263 93.0026 40.1061 99.9548 45.3348 105.184C50.5636 110.412 57.5158 113.292 64.9103 113.292C72.3048 113.292 79.257 110.412 84.4858 105.184C89.7146 99.9548 92.5943 93.0026 92.5943 85.6081C92.5943 78.2136 89.7146 71.2613 84.4858 66.0326C79.257 60.8038 72.3048 57.9241 64.9103 57.9241Z" fill="#224356"/>
</g>
<defs>
<clipPath id="clip0_1270_2500">
<rect width="167.963" height="150" fill="white" transform="translate(0.0185547 0.5)"/>
</clipPath>
</defs>
</svg>
