<svg width="56" height="56" viewBox="0 0 56 56" fill="none" xmlns="http://www.w3.org/2000/svg">
<path d="M37.75 22.042C37.75 24.1328 36.0492 25.8337 33.9583 25.8337C31.8675 25.8337 30.1667 24.1328 30.1667 22.042C30.1667 19.9512 31.8675 18.2503 33.9583 18.2503C36.0492 18.2503 37.75 19.9512 37.75 22.042ZM35.5833 27.7728C35.0417 27.9137 34.5 28.0003 33.9583 28.0003C32.379 27.9975 30.8651 27.3688 29.7483 26.252C28.6315 25.1352 28.0029 23.6214 28 22.042C28 20.4495 28.6283 19.0087 29.625 17.9362C29.4284 17.6952 29.1805 17.5011 28.8994 17.368C28.6183 17.2349 28.311 17.1663 28 17.167C26.8083 17.167 25.8333 18.142 25.8333 19.3337V19.6478C22.6158 20.6012 20.4167 23.5587 20.4167 26.917V33.417L18.25 35.5837V36.667H37.75V35.5837L35.5833 33.417V27.7728ZM28 39.917C29.2025 39.917 30.1667 38.9528 30.1667 37.7503H25.8333C25.8333 38.325 26.0616 38.8761 26.4679 39.2824C26.8743 39.6887 27.4254 39.917 28 39.917Z" fill="#8981B1"/>
</svg>
