<svg width="27" height="28" viewBox="0 0 27 28" fill="none" xmlns="http://www.w3.org/2000/svg">
<path d="M9.30131 17.4033C9.09431 17.4033 8.95481 17.4236 8.88281 17.4438V18.7691C8.96831 18.7893 9.07519 18.7949 9.22256 18.7949C9.76144 18.7949 10.0933 18.5227 10.0933 18.0626C10.0933 17.6508 9.80756 17.4033 9.30131 17.4033ZM13.2242 17.4168C12.9992 17.4168 12.8529 17.4371 12.7663 17.4573V20.3936C12.8529 20.4138 12.9924 20.4138 13.1184 20.4138C14.0376 20.4206 14.6361 19.9143 14.6361 18.8433C14.6428 17.9096 14.0972 17.4168 13.2242 17.4168Z" fill="#F44336"/>
<path d="M15.75 3.13867H6.75C6.15326 3.13867 5.58097 3.37572 5.15901 3.79768C4.73705 4.21964 4.5 4.79193 4.5 5.38867V23.3887C4.5 23.9854 4.73705 24.5577 5.15901 24.9797C5.58097 25.4016 6.15326 25.6387 6.75 25.6387H20.25C20.8467 25.6387 21.419 25.4016 21.841 24.9797C22.2629 24.5577 22.5 23.9854 22.5 23.3887V9.88867L15.75 3.13867ZM10.6853 19.1024C10.3376 19.4287 9.82462 19.5749 9.22725 19.5749C9.1114 19.5771 8.99556 19.5703 8.88075 19.5547V21.1589H7.875V16.7309C8.32891 16.6634 8.78752 16.6326 9.24638 16.6387C9.873 16.6387 10.3185 16.7579 10.6189 16.9975C10.9046 17.2248 11.0981 17.5972 11.0981 18.0359C11.097 18.4769 10.9508 18.8493 10.6853 19.1024ZM14.9681 20.6268C14.4956 21.0194 13.7768 21.2062 12.8981 21.2062C12.3716 21.2062 11.9992 21.1724 11.7461 21.1387V16.732C12.2002 16.666 12.6587 16.6348 13.1175 16.6387C13.9691 16.6387 14.5226 16.7917 14.9546 17.1179C15.4215 17.4644 15.714 18.0168 15.714 18.8099C15.714 19.6683 15.4001 20.2612 14.9681 20.6268ZM19.125 17.5049H17.4015V18.5298H19.0125V19.3555H17.4015V21.16H16.3822V16.6724H19.125V17.5049ZM15.75 11.0137H14.625V5.38867L20.25 11.0137H15.75Z" fill="#F44336"/>
</svg>
