<svg width="53" height="53" viewBox="0 0 53 53" fill="none" xmlns="http://www.w3.org/2000/svg">
<g filter="url(#filter0_d_1759_12518)">
<rect x="5" y="3" width="43" height="43" rx="21.5" fill="#C66C06"/>
</g>
<path d="M26 32.5C21.8578 32.5 18.5 29.1423 18.5 25C18.5 20.8578 21.8578 17.5 26 17.5C30.1423 17.5 33.5 20.8578 33.5 25C33.5 29.1423 30.1423 32.5 26 32.5ZM25.25 27.25V28.75H26.75V27.25H25.25ZM26.75 26.0162C27.3528 25.8346 27.8702 25.4425 28.2081 24.9113C28.546 24.3801 28.6819 23.7453 28.5911 23.1223C28.5002 22.4994 28.1886 21.9298 27.713 21.5173C27.2374 21.1049 26.6295 20.8769 26 20.875C25.3931 20.8748 24.8049 21.0849 24.3355 21.4696C23.866 21.8542 23.5444 22.3897 23.4253 22.9847L24.8968 23.2795C24.9385 23.0706 25.0387 22.8778 25.1858 22.7236C25.3328 22.5694 25.5206 22.4602 25.7273 22.4085C25.934 22.3569 26.1511 22.365 26.3534 22.432C26.5557 22.4989 26.7348 22.6219 26.8699 22.7867C27.005 22.9514 27.0905 23.1512 27.1165 23.3626C27.1425 23.5741 27.108 23.7886 27.0168 23.9812C26.9257 24.1738 26.7818 24.3365 26.6017 24.4505C26.4217 24.5645 26.2131 24.625 26 24.625C25.8011 24.625 25.6103 24.704 25.4697 24.8447C25.329 24.9853 25.25 25.1761 25.25 25.375V26.5H26.75V26.0162Z" fill="white"/>
<defs>
<filter id="filter0_d_1759_12518" x="0" y="0" width="53" height="53" filterUnits="userSpaceOnUse" color-interpolation-filters="sRGB">
<feFlood flood-opacity="0" result="BackgroundImageFix"/>
<feColorMatrix in="SourceAlpha" type="matrix" values="0 0 0 0 0 0 0 0 0 0 0 0 0 0 0 0 0 0 127 0" result="hardAlpha"/>
<feOffset dy="2"/>
<feGaussianBlur stdDeviation="2.5"/>
<feComposite in2="hardAlpha" operator="out"/>
<feColorMatrix type="matrix" values="0 0 0 0 0.878499 0 0 0 0 0.878499 0 0 0 0 0.878499 0 0 0 0.3 0"/>
<feBlend mode="normal" in2="BackgroundImageFix" result="effect1_dropShadow_1759_12518"/>
<feBlend mode="normal" in="SourceGraphic" in2="effect1_dropShadow_1759_12518" result="shape"/>
</filter>
</defs>
</svg>
