<svg width="27" height="28" viewBox="0 0 27 28" fill="none" xmlns="http://www.w3.org/2000/svg">
<path d="M23.8212 11.3443C23.4236 10.9288 23.0122 10.5005 22.8572 10.124C22.7138 9.77914 22.7053 9.2075 22.6969 8.65379C22.6811 7.62441 22.6642 6.45793 21.8531 5.64687C21.0421 4.83582 19.8756 4.81895 18.8462 4.80312C18.2925 4.79469 17.7209 4.78625 17.376 4.64281C17.0005 4.48777 16.5712 4.07645 16.1557 3.67883C15.428 2.97957 14.6011 2.1875 13.5 2.1875C12.3989 2.1875 11.5731 2.97957 10.8443 3.67883C10.4288 4.07645 10.0005 4.48777 9.62402 4.64281C9.28125 4.78625 8.7075 4.79469 8.15379 4.80312C7.12441 4.81895 5.95793 4.83582 5.14687 5.64687C4.33582 6.45793 4.32422 7.62441 4.30312 8.65379C4.29469 9.2075 4.28625 9.77914 4.14281 10.124C3.98777 10.4995 3.57645 10.9288 3.17883 11.3443C2.47957 12.072 1.6875 12.8989 1.6875 14C1.6875 15.1011 2.47957 15.9269 3.17883 16.6557C3.57645 17.0712 3.98777 17.4995 4.14281 17.876C4.28625 18.2209 4.29469 18.7925 4.30312 19.3462C4.31895 20.3756 4.33582 21.5421 5.14687 22.3531C5.95793 23.1642 7.12441 23.1811 8.15379 23.1969C8.7075 23.2053 9.27914 23.2138 9.62402 23.3572C9.99949 23.5122 10.4288 23.9236 10.8443 24.3212C11.572 25.0204 12.3989 25.8125 13.5 25.8125C14.6011 25.8125 15.4269 25.0204 16.1557 24.3212C16.5712 23.9236 16.9995 23.5122 17.376 23.3572C17.7209 23.2138 18.2925 23.2053 18.8462 23.1969C19.8756 23.1811 21.0421 23.1642 21.8531 22.3531C22.6642 21.5421 22.6811 20.3756 22.6969 19.3462C22.7053 18.7925 22.7138 18.2209 22.8572 17.876C23.0122 17.5005 23.4236 17.0712 23.8212 16.6557C24.5204 15.928 25.3125 15.1011 25.3125 14C25.3125 12.8989 24.5204 12.0731 23.8212 11.3443ZM13.5 20.75C13.2497 20.75 13.005 20.6758 12.7969 20.5367C12.5887 20.3976 12.4265 20.2 12.3307 19.9687C12.2349 19.7374 12.2099 19.483 12.2587 19.2375C12.3075 18.992 12.4281 18.7664 12.6051 18.5894C12.7821 18.4124 13.0076 18.2919 13.2531 18.2431C13.4986 18.1942 13.7531 18.2193 13.9843 18.3151C14.2156 18.4109 14.4133 18.5731 14.5523 18.7812C14.6914 18.9894 14.7656 19.2341 14.7656 19.4844C14.7656 19.82 14.6323 20.142 14.3949 20.3793C14.1576 20.6167 13.8357 20.75 13.5 20.75ZM14.3438 15.6116V15.6875C14.3438 15.9113 14.2549 16.1259 14.0966 16.2841C13.9384 16.4424 13.7238 16.5312 13.5 16.5312C13.2762 16.5312 13.0616 16.4424 12.9034 16.2841C12.7451 16.1259 12.6562 15.9113 12.6562 15.6875V14.8438C12.6562 14.62 12.7451 14.4054 12.9034 14.2471C13.0616 14.0889 13.2762 14 13.5 14C14.8954 14 16.0312 13.0508 16.0312 11.8906C16.0312 10.7305 14.8954 9.78125 13.5 9.78125C12.1046 9.78125 10.9688 10.7305 10.9688 11.8906V12.3125C10.9688 12.5363 10.8799 12.7509 10.7216 12.9091C10.5634 13.0674 10.3488 13.1562 10.125 13.1562C9.90122 13.1562 9.68661 13.0674 9.52838 12.9091C9.37014 12.7509 9.28125 12.5363 9.28125 12.3125V11.8906C9.28125 9.79707 11.1734 8.09375 13.5 8.09375C15.8266 8.09375 17.7188 9.79707 17.7188 11.8906C17.7188 13.7237 16.2675 15.2582 14.3438 15.6116Z" fill="#4A436C"/>
</svg>
