<svg width="53" height="53" viewBox="0 0 53 53" fill="none" xmlns="http://www.w3.org/2000/svg">
<g filter="url(#filter0_d_1847_18369)">
<rect x="5" y="3" width="43" height="43" rx="21.5" fill="#564E7E"/>
</g>
<path d="M24.8885 22.7485L24.5 21.7975L24.11 22.7485H24.8885ZM21.3125 18.25C20.7655 18.25 20.2409 18.4673 19.8541 18.8541C19.4673 19.2409 19.25 19.7655 19.25 20.3125V29.6875C19.25 30.2345 19.4673 30.7591 19.8541 31.1459C20.2409 31.5327 20.7655 31.75 21.3125 31.75H26.0165C25.5146 30.9666 25.2486 30.0554 25.25 29.125C25.25 28.4605 25.3828 27.8275 25.6235 27.25H21.3125C21.1633 27.25 21.0202 27.1907 20.9148 27.0852C20.8093 26.9798 20.75 26.8367 20.75 26.6875C20.75 26.5383 20.8093 26.3952 20.9148 26.2898C21.0202 26.1843 21.1633 26.125 21.3125 26.125H26.282C26.7376 25.5406 27.3206 25.0678 27.9866 24.7429C28.6526 24.418 29.384 24.2494 30.125 24.25C31.0554 24.2486 31.9666 24.5146 32.75 25.0165V20.3125C32.75 19.7655 32.5327 19.2409 32.1459 18.8541C31.7591 18.4673 31.2345 18.25 30.6875 18.25H21.3125ZM23.9375 29.875H21.3125C21.1633 29.875 21.0202 29.8157 20.9148 29.7102C20.8093 29.6048 20.75 29.4617 20.75 29.3125C20.75 29.1633 20.8093 29.0202 20.9148 28.9148C21.0202 28.8093 21.1633 28.75 21.3125 28.75H23.9375C24.0867 28.75 24.2298 28.8093 24.3352 28.9148C24.4407 29.0202 24.5 29.1633 24.5 29.3125C24.5 29.4617 24.4407 29.6048 24.3352 29.7102C24.2298 29.8157 24.0867 29.875 23.9375 29.875ZM25.0205 20.098L26.7065 24.2245C26.763 24.3626 26.7623 24.5176 26.7046 24.6552C26.6468 24.7928 26.5368 24.9019 26.3986 24.9584C26.2605 25.0149 26.1056 25.0142 25.9679 24.9564C25.8303 24.8987 25.7212 24.7886 25.6648 24.6505L25.3475 23.8735H23.651L23.333 24.6505C23.2746 24.7857 23.1655 24.8927 23.0291 24.9483C22.8927 25.004 22.7399 25.0039 22.6036 24.9481C22.4672 24.8923 22.3582 24.7852 22.3 24.6499C22.2417 24.5146 22.2388 24.3619 22.292 24.2245L23.9795 20.098C24.0218 19.9947 24.0939 19.9064 24.1866 19.8442C24.2793 19.782 24.3884 19.7488 24.5 19.7488C24.6116 19.7488 24.7207 19.782 24.8134 19.8442C24.9061 19.9064 24.9782 19.9947 25.0205 20.098ZM29.375 20.3103V21.2478H30.3125C30.4617 21.2478 30.6048 21.307 30.7102 21.4125C30.8157 21.518 30.875 21.6611 30.875 21.8103C30.875 21.9594 30.8157 22.1025 30.7102 22.208C30.6048 22.3135 30.4617 22.3727 30.3125 22.3727H29.375V23.3102C29.375 23.4594 29.3157 23.6025 29.2102 23.708C29.1048 23.8135 28.9617 23.8727 28.8125 23.8727C28.6633 23.8727 28.5202 23.8135 28.4148 23.708C28.3093 23.6025 28.25 23.4594 28.25 23.3102V22.3727H27.3125C27.1633 22.3727 27.0202 22.3135 26.9148 22.208C26.8093 22.1025 26.75 21.9594 26.75 21.8103C26.75 21.6611 26.8093 21.518 26.9148 21.4125C27.0202 21.307 27.1633 21.2478 27.3125 21.2478H28.25V20.3103C28.25 20.1611 28.3093 20.018 28.4148 19.9125C28.5202 19.807 28.6633 19.7478 28.8125 19.7478C28.9617 19.7478 29.1048 19.807 29.2102 19.9125C29.3157 20.018 29.375 20.1611 29.375 20.3103ZM34.25 29.125C34.25 28.031 33.8154 26.9818 33.0418 26.2082C32.2682 25.4346 31.219 25 30.125 25C29.031 25 27.9818 25.4346 27.2082 26.2082C26.4346 26.9818 26 28.031 26 29.125C26 30.219 26.4346 31.2682 27.2082 32.0418C27.9818 32.8154 29.031 33.25 30.125 33.25C31.219 33.25 32.2682 32.8154 33.0418 32.0418C33.8154 31.2682 34.25 30.219 34.25 29.125ZM30.5 29.5L30.5007 31.3773C30.5007 31.4767 30.4612 31.5721 30.3909 31.6424C30.3206 31.7127 30.2252 31.7523 30.1257 31.7523C30.0263 31.7523 29.9309 31.7127 29.8606 31.6424C29.7903 31.5721 29.7507 31.4767 29.7507 31.3773V29.5H27.872C27.7725 29.5 27.6772 29.4605 27.6068 29.3902C27.5365 29.3198 27.497 29.2245 27.497 29.125C27.497 29.0255 27.5365 28.9302 27.6068 28.8598C27.6772 28.7895 27.7725 28.75 27.872 28.75H29.75V26.875C29.75 26.7755 29.7895 26.6802 29.8598 26.6098C29.9302 26.5395 30.0255 26.5 30.125 26.5C30.2245 26.5 30.3198 26.5395 30.3902 26.6098C30.4605 26.6802 30.5 26.7755 30.5 26.875V28.75H32.3773C32.4767 28.75 32.5721 28.7895 32.6424 28.8598C32.7127 28.9302 32.7523 29.0255 32.7523 29.125C32.7523 29.2245 32.7127 29.3198 32.6424 29.3902C32.5721 29.4605 32.4767 29.5 32.3773 29.5H30.5Z" fill="white"/>
<defs>
<filter id="filter0_d_1847_18369" x="0" y="0" width="53" height="53" filterUnits="userSpaceOnUse" color-interpolation-filters="sRGB">
<feFlood flood-opacity="0" result="BackgroundImageFix"/>
<feColorMatrix in="SourceAlpha" type="matrix" values="0 0 0 0 0 0 0 0 0 0 0 0 0 0 0 0 0 0 127 0" result="hardAlpha"/>
<feOffset dy="2"/>
<feGaussianBlur stdDeviation="2.5"/>
<feComposite in2="hardAlpha" operator="out"/>
<feColorMatrix type="matrix" values="0 0 0 0 0.878499 0 0 0 0 0.878499 0 0 0 0 0.878499 0 0 0 0.3 0"/>
<feBlend mode="normal" in2="BackgroundImageFix" result="effect1_dropShadow_1847_18369"/>
<feBlend mode="normal" in="SourceGraphic" in2="effect1_dropShadow_1847_18369" result="shape"/>
</filter>
</defs>
</svg>
