<svg width="56" height="56" viewBox="0 0 56 56" fill="none" xmlns="http://www.w3.org/2000/svg">
<path d="M36.6673 23.667L30.1673 17.167H21.5007C20.926 17.167 20.3749 17.3953 19.9686 17.8016C19.5623 18.2079 19.334 18.759 19.334 19.3337V36.667C19.334 37.2416 19.5623 37.7927 19.9686 38.1991C20.3749 38.6054 20.926 38.8337 21.5007 38.8337H34.5007C35.0753 38.8337 35.6264 38.6054 36.0327 38.1991C36.439 37.7927 36.6673 37.2416 36.6673 36.667V23.667ZM24.7507 35.5837H22.584V25.8337H24.7507V35.5837ZM29.084 35.5837H26.9173V29.0837H29.084V35.5837ZM33.4173 35.5837H31.2507V32.3337H33.4173V35.5837ZM30.1673 24.7503H29.084V19.3337L34.5007 24.7503H30.1673Z" fill="#8981B1"/>
</svg>
