<svg width="53" height="53" viewBox="0 0 53 53" fill="none" xmlns="http://www.w3.org/2000/svg">
<g filter="url(#filter0_d_1653_11781)">
<rect x="5" y="3" width="43" height="43" rx="21.5" fill="#FF9800"/>
</g>
<path d="M29 18.25C29.1989 18.25 29.3897 18.329 29.5303 18.4697C29.671 18.6103 29.75 18.8011 29.75 19V19.75H31.25C31.6284 19.7499 31.9929 19.8928 32.2704 20.1501C32.5479 20.4074 32.7179 20.7601 32.7463 21.1375L32.75 21.25V30.25C32.7501 30.6284 32.6072 30.9929 32.3499 31.2704C32.0926 31.5479 31.7399 31.7179 31.3625 31.7463L31.25 31.75H20.75C20.3716 31.7501 20.0071 31.6072 19.7296 31.3499C19.4521 31.0926 19.2821 30.7399 19.2538 30.3625L19.25 30.25V21.25C19.2499 20.8716 19.3928 20.5071 19.6501 20.2296C19.9074 19.9521 20.2601 19.7821 20.6375 19.7538L20.75 19.75H22.25V19C22.25 18.8011 22.329 18.6103 22.4697 18.4697C22.6103 18.329 22.8011 18.25 23 18.25C23.1989 18.25 23.3897 18.329 23.5303 18.4697C23.671 18.6103 23.75 18.8011 23.75 19V19.75H28.25V19C28.25 18.8011 28.329 18.6103 28.4697 18.4697C28.6103 18.329 28.8011 18.25 29 18.25ZM28.118 23.0342L24.9365 26.2158L23.8752 25.1552C23.7338 25.0186 23.5443 24.943 23.3477 24.9447C23.1511 24.9465 22.9629 25.0253 22.8239 25.1644C22.6848 25.3034 22.606 25.4916 22.6042 25.6882C22.6025 25.8848 22.6781 26.0743 22.8147 26.2158L24.4002 27.802C24.4706 27.8724 24.5541 27.9283 24.6461 27.9664C24.738 28.0045 24.8366 28.0241 24.9361 28.0241C25.0357 28.0241 25.1342 28.0045 25.2262 27.9664C25.3181 27.9283 25.4017 27.8724 25.472 27.802L29.1785 24.0948C29.2501 24.0256 29.3073 23.9428 29.3466 23.8513C29.3859 23.7598 29.4066 23.6614 29.4074 23.5618C29.4083 23.4622 29.3893 23.3635 29.3516 23.2713C29.3139 23.1791 29.2582 23.0954 29.1878 23.025C29.1174 22.9545 29.0336 22.8988 28.9415 22.8611C28.8493 22.8234 28.7505 22.8044 28.6509 22.8053C28.5514 22.8062 28.4529 22.8269 28.3614 22.8662C28.2699 22.9055 28.1872 22.9626 28.118 23.0342Z" fill="white"/>
<defs>
<filter id="filter0_d_1653_11781" x="0" y="0" width="53" height="53" filterUnits="userSpaceOnUse" color-interpolation-filters="sRGB">
<feFlood flood-opacity="0" result="BackgroundImageFix"/>
<feColorMatrix in="SourceAlpha" type="matrix" values="0 0 0 0 0 0 0 0 0 0 0 0 0 0 0 0 0 0 127 0" result="hardAlpha"/>
<feOffset dy="2"/>
<feGaussianBlur stdDeviation="2.5"/>
<feComposite in2="hardAlpha" operator="out"/>
<feColorMatrix type="matrix" values="0 0 0 0 0.878499 0 0 0 0 0.878499 0 0 0 0 0.878499 0 0 0 0.3 0"/>
<feBlend mode="normal" in2="BackgroundImageFix" result="effect1_dropShadow_1653_11781"/>
<feBlend mode="normal" in="SourceGraphic" in2="effect1_dropShadow_1653_11781" result="shape"/>
</filter>
</defs>
</svg>
