<svg width="56" height="56" viewBox="0 0 56 56" fill="none" xmlns="http://www.w3.org/2000/svg">
<path d="M28.0129 24.9173C27.2537 24.9173 26.5427 25.2118 26.0045 25.7501C25.4687 26.2884 25.1716 26.9993 25.1716 27.7585C25.1716 28.5177 25.4687 29.2286 26.0045 29.7669C26.5427 30.3026 27.2537 30.5997 28.0129 30.5997C28.772 30.5997 29.483 30.3026 30.0213 29.7669C30.557 29.2286 30.8541 28.5177 30.8541 27.7585C30.8541 26.9993 30.557 26.2884 30.0213 25.7501C29.7583 25.4852 29.4454 25.2751 29.1006 25.1321C28.7559 24.9892 28.3861 24.9161 28.0129 24.9173ZM38.4814 30.8968L36.8209 29.4774C36.8996 28.995 36.9402 28.5024 36.9402 28.0124C36.9402 27.5224 36.8996 27.0272 36.8209 26.5474L38.4814 25.128C38.6069 25.0206 38.6966 24.8776 38.7388 24.718C38.781 24.5583 38.7736 24.3896 38.7175 24.2343L38.6947 24.1683C38.2377 22.8903 37.5529 21.7058 36.6736 20.672L36.6279 20.6187C36.5211 20.4931 36.3788 20.4028 36.2197 20.3598C36.0606 20.3167 35.8922 20.3229 35.7367 20.3774L33.675 21.1112C32.9133 20.4866 32.0652 19.994 31.1461 19.6513L30.7474 17.4956C30.7174 17.3332 30.6386 17.1838 30.5216 17.0673C30.4046 16.9507 30.2549 16.8725 30.0924 16.8431L30.0238 16.8304C28.7035 16.5917 27.3121 16.5917 25.9918 16.8304L25.9232 16.8431C25.7607 16.8725 25.611 16.9507 25.494 17.0673C25.377 17.1838 25.2982 17.3332 25.2681 17.4956L24.867 19.6614C23.9565 20.0069 23.1084 20.4983 22.3558 21.1163L20.2789 20.3774C20.1234 20.3225 19.9549 20.3161 19.7957 20.3592C19.6365 20.4022 19.4942 20.4928 19.3877 20.6187L19.342 20.672C18.4642 21.7069 17.7796 22.8911 17.3209 24.1683L17.298 24.2343C17.1838 24.5517 17.2777 24.9071 17.5341 25.128L19.215 26.5626C19.1363 27.0399 19.0982 27.5274 19.0982 28.0099C19.0982 28.4974 19.1363 28.9849 19.215 29.4571L17.5392 30.8917C17.4138 30.9991 17.324 31.1421 17.2818 31.3018C17.2396 31.4614 17.2471 31.6301 17.3031 31.7854L17.3259 31.8515C17.7855 33.1286 18.4634 34.3093 19.347 35.3478L19.3927 35.4011C19.4995 35.5266 19.6418 35.6169 19.8009 35.6599C19.96 35.703 20.1284 35.6968 20.284 35.6423L22.3609 34.9034C23.1175 35.5255 23.9605 36.0181 24.872 36.3583L25.2732 38.5241C25.3033 38.6865 25.3821 38.8359 25.4991 38.9525C25.6161 39.069 25.7658 39.1472 25.9283 39.1767L25.9968 39.1894C27.3301 39.4293 28.6956 39.4293 30.0289 39.1894L30.0974 39.1767C30.2599 39.1472 30.4096 39.069 30.5266 38.9525C30.6437 38.8359 30.7224 38.6865 30.7525 38.5241L31.1511 36.3685C32.0703 36.0231 32.9183 35.5331 33.68 34.9085L35.7418 35.6423C35.8972 35.6973 36.0658 35.7037 36.225 35.6606C36.3842 35.6175 36.5265 35.527 36.633 35.4011L36.6787 35.3478C37.5623 34.3042 38.2402 33.1286 38.6998 31.8515L38.7226 31.7854C38.8318 31.4706 38.7379 31.1177 38.4814 30.8968ZM28.0129 32.2222C25.5474 32.2222 23.5492 30.2239 23.5492 27.7585C23.5492 25.2931 25.5474 23.2948 28.0129 23.2948C30.4783 23.2948 32.4765 25.2931 32.4765 27.7585C32.4765 30.2239 30.4783 32.2222 28.0129 32.2222Z" fill="#8981B1"/>
</svg>
