<svg width="27" height="27" viewBox="0 0 27 27" fill="none" xmlns="http://www.w3.org/2000/svg">
<path d="M13.5 2.25C19.7134 2.25 24.75 7.28663 24.75 13.5C24.75 19.7134 19.7134 24.75 13.5 24.75C7.28663 24.75 2.25 19.7134 2.25 13.5C2.25 7.28663 7.28663 2.25 13.5 2.25ZM13.4887 11.25H12.375C12.0883 11.2503 11.8125 11.3601 11.604 11.557C11.3955 11.7538 11.27 12.0228 11.2532 12.3091C11.2364 12.5953 11.3295 12.8772 11.5135 13.0971C11.6976 13.3169 11.9586 13.4583 12.2434 13.4921L12.375 13.5V19.1138C12.375 19.6987 12.8182 20.1825 13.3875 20.2432L13.5113 20.25H14.0625C14.2991 20.25 14.5297 20.1754 14.7215 20.0368C14.9132 19.8983 15.0564 19.7027 15.1307 19.4781C15.2049 19.2534 15.2065 19.0111 15.1351 18.7855C15.0637 18.56 14.923 18.3626 14.733 18.2216L14.625 18.1508V12.3863C14.625 11.8013 14.1818 11.3175 13.6125 11.2567L13.4887 11.25ZM13.5 7.875C13.2016 7.875 12.9155 7.99353 12.7045 8.2045C12.4935 8.41548 12.375 8.70163 12.375 9C12.375 9.29837 12.4935 9.58452 12.7045 9.7955C12.9155 10.0065 13.2016 10.125 13.5 10.125C13.7984 10.125 14.0845 10.0065 14.2955 9.7955C14.5065 9.58452 14.625 9.29837 14.625 9C14.625 8.70163 14.5065 8.41548 14.2955 8.2045C14.0845 7.99353 13.7984 7.875 13.5 7.875Z" fill="#61646B"/>
</svg>
