<svg width="38" height="38" viewBox="0 0 38 38" fill="none" xmlns="http://www.w3.org/2000/svg">
<rect width="38" height="38" rx="19" fill="#D7FFD8"/>
<rect x="5" y="5" width="28" height="28" rx="14" fill="#4CAF50"/>
<path d="M19 11.125C17.4425 11.125 15.9199 11.5869 14.6249 12.4522C13.3299 13.3175 12.3205 14.5474 11.7245 15.9864C11.1284 17.4253 10.9725 19.0087 11.2763 20.5363C11.5802 22.0639 12.3302 23.4671 13.4315 24.5685C14.5329 25.6698 15.9361 26.4198 17.4637 26.7237C18.9913 27.0275 20.5747 26.8716 22.0136 26.2756C23.4526 25.6795 24.6825 24.6702 25.5478 23.3751C26.4131 22.0801 26.875 20.5575 26.875 19C26.875 16.9114 26.0453 14.9084 24.5685 13.4315C23.0916 11.9547 21.0886 11.125 19 11.125ZM17.875 22.1444L15.0625 19.3319L15.9569 18.4375L17.875 20.3556L22.0431 16.1875L22.9409 17.0796L17.875 22.1444Z" fill="white"/>
</svg>
