<svg width="19" height="12" viewBox="0 0 19 12" fill="none" xmlns="http://www.w3.org/2000/svg">
<path fill-rule="evenodd" clip-rule="evenodd" d="M16.8069 4.94531C17.8953 4.94531 18.7812 4.00031 18.7812 2.83594C18.7812 1.67156 17.8953 0.726562 16.8069 0.726562C15.7167 0.726562 14.8325 1.67156 14.8325 2.83594C14.8325 4.00031 15.7167 4.94531 16.8069 4.94531ZM2.19312 4.94531C3.28325 4.94531 4.1675 4.00031 4.1675 2.83594C4.1675 1.67156 3.28325 0.726562 2.19312 0.726562C1.103 0.726562 0.21875 1.67156 0.21875 2.83594C0.21875 4.00031 1.10469 4.94531 2.19312 4.94531ZM11.4744 2.83594C11.4744 4.00031 10.5884 4.94531 9.5 4.94531C8.41156 4.94531 7.52563 4.00031 7.52563 2.83594C7.52563 1.67156 8.41156 0.726562 9.5 0.726562C10.5884 0.726562 11.4744 1.67156 11.4744 2.83594ZM16.8069 11.2734C17.8953 11.2734 18.7812 10.3284 18.7812 9.16406C18.7812 7.99969 17.8953 7.05469 16.8069 7.05469C15.7167 7.05469 14.8325 7.99969 14.8325 9.16406C14.8325 10.3284 15.7167 11.2734 16.8069 11.2734ZM4.1675 9.16406C4.1675 10.3284 3.28325 11.2734 2.19312 11.2734C1.103 11.2734 0.21875 10.3284 0.21875 9.16406C0.21875 7.99969 1.10469 7.05469 2.19312 7.05469C3.28325 7.05469 4.1675 7.99969 4.1675 9.16406ZM9.5 11.2734C10.5884 11.2734 11.4744 10.3284 11.4744 9.16406C11.4744 7.99969 10.5884 7.05469 9.5 7.05469C8.41156 7.05469 7.52562 7.99969 7.52562 9.16406C7.52562 10.3284 8.41156 11.2734 9.5 11.2734Z" fill="#94979E"/>
</svg>
