<svg width="53" height="53" viewBox="0 0 53 53" fill="none" xmlns="http://www.w3.org/2000/svg">
<g filter="url(#filter0_d_1168_7339)">
<rect x="5" y="3" width="43" height="43" rx="21.5" fill="#FF9800"/>
</g>
<path d="M34.3125 30.625C34.3125 30.7742 34.2532 30.9173 34.1477 31.0227C34.0423 31.1282 33.8992 31.1875 33.75 31.1875H20.25C20.1008 31.1875 19.9577 31.1282 19.8523 31.0227C19.7468 30.9173 19.6875 30.7742 19.6875 30.625C19.6875 30.4758 19.7468 30.3327 19.8523 30.2273C19.9577 30.1218 20.1008 30.0625 20.25 30.0625H33.75C33.8992 30.0625 34.0423 30.1218 34.1477 30.2273C34.2532 30.3327 34.3125 30.4758 34.3125 30.625ZM34.3125 19.9375V27.8125C34.3125 28.1109 34.194 28.397 33.983 28.608C33.772 28.819 33.4859 28.9375 33.1875 28.9375H20.8125C20.5141 28.9375 20.228 28.819 20.017 28.608C19.806 28.397 19.6875 28.1109 19.6875 27.8125V19.9375C19.6875 19.6391 19.806 19.353 20.017 19.142C20.228 18.931 20.5141 18.8125 20.8125 18.8125H33.1875C33.4859 18.8125 33.772 18.931 33.983 19.142C34.194 19.353 34.3125 19.6391 34.3125 19.9375ZM29.5312 23.875C29.5312 23.7846 29.5094 23.6956 29.4677 23.6154C29.4259 23.5352 29.3655 23.4663 29.2915 23.4145L26.479 21.4457C26.3947 21.3867 26.2958 21.3519 26.1932 21.3451C26.0905 21.3384 25.9879 21.3599 25.8966 21.4074C25.8054 21.4549 25.7288 21.5265 25.6754 21.6145C25.622 21.7024 25.5938 21.8033 25.5938 21.9062V25.8438C25.5938 25.9467 25.622 26.0476 25.6754 26.1355C25.7288 26.2235 25.8054 26.2951 25.8966 26.3426C25.9879 26.3901 26.0905 26.4116 26.1932 26.4049C26.2958 26.3981 26.3947 26.3633 26.479 26.3043L29.2915 24.3355C29.3655 24.2837 29.4259 24.2148 29.4677 24.1346C29.5094 24.0544 29.5312 23.9654 29.5312 23.875Z" fill="white"/>
<defs>
<filter id="filter0_d_1168_7339" x="0" y="0" width="53" height="53" filterUnits="userSpaceOnUse" color-interpolation-filters="sRGB">
<feFlood flood-opacity="0" result="BackgroundImageFix"/>
<feColorMatrix in="SourceAlpha" type="matrix" values="0 0 0 0 0 0 0 0 0 0 0 0 0 0 0 0 0 0 127 0" result="hardAlpha"/>
<feOffset dy="2"/>
<feGaussianBlur stdDeviation="2.5"/>
<feComposite in2="hardAlpha" operator="out"/>
<feColorMatrix type="matrix" values="0 0 0 0 0.878499 0 0 0 0 0.878499 0 0 0 0 0.878499 0 0 0 0.3 0"/>
<feBlend mode="normal" in2="BackgroundImageFix" result="effect1_dropShadow_1168_7339"/>
<feBlend mode="normal" in="SourceGraphic" in2="effect1_dropShadow_1168_7339" result="shape"/>
</filter>
</defs>
</svg>
