<svg width="53" height="53" viewBox="0 0 53 53" fill="none" xmlns="http://www.w3.org/2000/svg">
<g filter="url(#filter0_d_1072_17394)">
<rect x="5" y="3" width="43" height="43" rx="21.5" fill="#8376BC"/>
</g>
<path d="M21.3384 17.9287C20.6991 17.9287 20.0859 18.1827 19.6338 18.6348C19.1817 19.0869 18.9277 19.7001 18.9277 20.3394V29.6609C18.9277 30.3002 19.1817 30.9134 19.6338 31.3655C20.0859 31.8176 20.6991 32.0716 21.3384 32.0716H30.6599C31.2992 32.0716 31.9124 31.8176 32.3645 31.3655C32.8166 30.9134 33.0706 30.3002 33.0706 29.6609V20.3394C33.0706 19.7001 32.8166 19.0869 32.3645 18.6348C31.9124 18.1827 31.2992 17.9287 30.6599 17.9287H21.3384ZM20.8563 21.7859C20.8563 21.4449 20.9918 21.1178 21.2329 20.8767C21.474 20.6356 21.801 20.5001 22.142 20.5001H29.8563C30.1973 20.5001 30.5243 20.6356 30.7654 20.8767C31.0066 21.1178 31.142 21.4449 31.142 21.7859V23.0716C31.142 23.4126 31.0066 23.7396 30.7654 23.9807C30.5243 24.2218 30.1973 24.3573 29.8563 24.3573H22.142C21.801 24.3573 21.474 24.2218 21.2329 23.9807C20.9918 23.7396 20.8563 23.4126 20.8563 23.0716V21.7859ZM22.142 21.4644C22.0568 21.4644 21.975 21.4983 21.9147 21.5586C21.8545 21.6188 21.8206 21.7006 21.8206 21.7859V23.0716C21.8206 23.1568 21.8545 23.2386 21.9147 23.2989C21.975 23.3591 22.0568 23.393 22.142 23.393H29.8563C29.9416 23.393 30.0233 23.3591 30.0836 23.2989C30.1439 23.2386 30.1777 23.1568 30.1777 23.0716V21.7859C30.1777 21.7006 30.1439 21.6188 30.0836 21.5586C30.0233 21.4983 29.9416 21.4644 29.8563 21.4644H22.142ZM21.3384 25.643H24.8742C25.002 25.643 25.1247 25.6938 25.2151 25.7842C25.3055 25.8746 25.3563 25.9973 25.3563 26.1251C25.3563 26.253 25.3055 26.3756 25.2151 26.4661C25.1247 26.5565 25.002 26.6073 24.8742 26.6073H21.3384C21.2106 26.6073 21.0879 26.5565 20.9975 26.4661C20.9071 26.3756 20.8563 26.253 20.8563 26.1251C20.8563 25.9973 20.9071 25.8746 20.9975 25.7842C21.0879 25.6938 21.2106 25.643 21.3384 25.643ZM20.8563 28.5359C20.8563 28.408 20.9071 28.2853 20.9975 28.1949C21.0879 28.1045 21.2106 28.0537 21.3384 28.0537H24.8742C25.002 28.0537 25.1247 28.1045 25.2151 28.1949C25.3055 28.2853 25.3563 28.408 25.3563 28.5359C25.3563 28.6637 25.3055 28.7864 25.2151 28.8768C25.1247 28.9672 25.002 29.018 24.8742 29.018H21.3384C21.2106 29.018 21.0879 28.9672 20.9975 28.8768C20.9071 28.7864 20.8563 28.6637 20.8563 28.5359ZM28.0884 25.3216H30.017C30.638 25.3216 31.142 25.8256 31.142 26.4466V28.3751C31.142 28.6735 31.0235 28.9597 30.8125 29.1706C30.6015 29.3816 30.3154 29.5001 30.017 29.5001H28.0884C27.7901 29.5001 27.5039 29.3816 27.293 29.1706C27.082 28.9597 26.9634 28.6735 26.9634 28.3751V26.4466C26.9634 25.8256 27.4674 25.3216 28.0884 25.3216ZM27.9277 26.4466C27.9277 26.4039 27.9447 26.3631 27.9748 26.3329C28.0049 26.3028 28.0458 26.2859 28.0884 26.2859H30.017C30.0596 26.2859 30.1005 26.3028 30.1307 26.3329C30.1608 26.3631 30.1777 26.4039 30.1777 26.4466V28.3751C30.1777 28.4178 30.1608 28.4586 30.1307 28.4888C30.1005 28.5189 30.0596 28.5359 30.017 28.5359H28.0884C28.0458 28.5359 28.0049 28.5189 27.9748 28.4888C27.9447 28.4586 27.9277 28.4178 27.9277 28.3751V26.4466Z" fill="white"/>
<defs>
<filter id="filter0_d_1072_17394" x="0" y="0" width="53" height="53" filterUnits="userSpaceOnUse" color-interpolation-filters="sRGB">
<feFlood flood-opacity="0" result="BackgroundImageFix"/>
<feColorMatrix in="SourceAlpha" type="matrix" values="0 0 0 0 0 0 0 0 0 0 0 0 0 0 0 0 0 0 127 0" result="hardAlpha"/>
<feOffset dy="2"/>
<feGaussianBlur stdDeviation="2.5"/>
<feComposite in2="hardAlpha" operator="out"/>
<feColorMatrix type="matrix" values="0 0 0 0 0.878499 0 0 0 0 0.878499 0 0 0 0 0.878499 0 0 0 0.3 0"/>
<feBlend mode="normal" in2="BackgroundImageFix" result="effect1_dropShadow_1072_17394"/>
<feBlend mode="normal" in="SourceGraphic" in2="effect1_dropShadow_1072_17394" result="shape"/>
</filter>
</defs>
</svg>
