<svg width="30" height="30" viewBox="0 0 30 30" fill="none" xmlns="http://www.w3.org/2000/svg">
<rect width="30" height="30" rx="8" fill="#FFEDD5"/>
<path d="M15 9.69666C9.81213 9.69666 5.71875 15 5.71875 15C5.71875 15 9.81213 20.3041 15 20.3041C18.9669 20.3041 24.2812 15 24.2812 15C24.2812 15 18.9669 9.69666 15 9.69666ZM15 18.3042C13.1781 18.3042 11.6952 16.8219 11.6952 15C11.6952 13.1782 13.1781 11.6952 15 11.6952C16.8219 11.6952 18.3048 13.1782 18.3048 15C18.3048 16.8219 16.8219 18.3042 15 18.3042ZM15 13.0709C14.7436 13.0661 14.4889 13.1124 14.2506 13.2071C14.0124 13.3019 13.7954 13.4432 13.6124 13.6228C13.4294 13.8024 13.284 14.0166 13.1848 14.253C13.0856 14.4895 13.0345 14.7433 13.0345 14.9997C13.0345 15.2561 13.0856 15.5099 13.1848 15.7463C13.284 15.9828 13.4294 16.197 13.6124 16.3766C13.7954 16.5562 14.0124 16.6975 14.2506 16.7922C14.4889 16.887 14.7436 16.9333 15 16.9285C15.5052 16.9189 15.9866 16.7115 16.3405 16.3508C16.6944 15.9902 16.8927 15.505 16.8927 14.9997C16.8927 14.4944 16.6944 14.0092 16.3405 13.6485C15.9866 13.2878 15.5052 13.0804 15 13.0709Z" fill="#B65C31"/>
</svg>
