<svg width="38" height="38" viewBox="0 0 38 38" fill="none" xmlns="http://www.w3.org/2000/svg">
<rect width="38" height="38" rx="19" fill="#FFF4D3"/>
<rect x="5" y="5" width="28" height="28" rx="14" fill="#FFBF00"/>
<path d="M25.7877 24.0311L19.796 12.9042C19.3714 12.1153 18.24 12.1153 17.815 12.9042L11.8237 24.0311C11.7314 24.2024 11.6852 24.3946 11.6895 24.5891C11.6937 24.7836 11.7484 24.9736 11.848 25.1407C11.9476 25.3077 12.0888 25.4461 12.2579 25.5423C12.427 25.6385 12.6181 25.6892 12.8126 25.6895H24.797C24.9917 25.6895 25.183 25.639 25.3523 25.5429C25.5216 25.4469 25.6631 25.3085 25.7629 25.1414C25.8628 24.9743 25.9175 24.7842 25.9219 24.5895C25.9262 24.3949 25.88 24.2025 25.7877 24.0311ZM18.8057 23.9668C18.6666 23.9668 18.5307 23.9256 18.4151 23.8483C18.2994 23.771 18.2093 23.6612 18.1561 23.5327C18.1029 23.4043 18.0889 23.2629 18.1161 23.1265C18.1432 22.9901 18.2102 22.8648 18.3085 22.7665C18.4068 22.6682 18.5321 22.6012 18.6685 22.5741C18.8049 22.5469 18.9463 22.5609 19.0748 22.6141C19.2032 22.6673 19.3131 22.7574 19.3903 22.873C19.4676 22.9887 19.5088 23.1246 19.5088 23.2637C19.5088 23.4502 19.4347 23.629 19.3029 23.7609C19.171 23.8927 18.9922 23.9668 18.8057 23.9668ZM19.5693 16.8951L19.3675 21.1842C19.3675 21.3334 19.3082 21.4764 19.2027 21.5819C19.0972 21.6874 18.9542 21.7467 18.805 21.7467C18.6558 21.7467 18.5127 21.6874 18.4072 21.5819C18.3017 21.4764 18.2425 21.3334 18.2425 21.1842L18.0407 16.8969C18.0362 16.7944 18.0523 16.6921 18.0881 16.596C18.124 16.5 18.1788 16.4121 18.2493 16.3376C18.3199 16.2632 18.4047 16.2037 18.4987 16.1628C18.5927 16.1218 18.694 16.1002 18.7965 16.0992H18.8039C18.9072 16.0991 19.0094 16.12 19.1043 16.1605C19.1993 16.201 19.285 16.2604 19.3564 16.335C19.4278 16.4095 19.4834 16.4978 19.5197 16.5945C19.556 16.6911 19.5724 16.7941 19.5679 16.8972L19.5693 16.8951Z" fill="white"/>
</svg>
